<svg width="45" height="46" viewBox="0 0 45 46" fill="none" xmlns="http://www.w3.org/2000/svg">
    <circle cx="22.5" cy="22.5" r="0.876623" fill="#00303F"/>
    <path fill-rule="evenodd" clip-rule="evenodd" d="M22.5 42.3701L5.55197 32.4351L5.25977 12.8491L22.46 2.92208L39.7403 12.8491V32.7833L22.5 42.3701ZM22.2684 36.2338L10.7186 29.4632L10.5195 16.1158L22.2411 9.35065L34.0173 16.1158V29.7005L22.2684 36.2338Z" fill="#00303F"/>
    <path d="M22.46 2.92208L5.25977 12.8491V15.1708L7.2598 14.05L22.46 5.24373L37.7403 14.05L39.7403 15.1708V12.8491L22.46 2.92208Z" fill="#F7C331"/>
    <path d="M37.7403 31.5825L22.46 40.3887L7.2598 31.5825V15.8913L5.25977 17.0121V32.7833L22.46 42.7104L39.7403 32.7833V17.0121L37.7403 15.8913V31.5825Z" fill="#F7C331"/>
    <path fill-rule="evenodd" clip-rule="evenodd" d="M3.84826 26.8796C1.79067 26.8796 0.00742529 25.0784 0.00742529 23C-0.129747 20.9217 1.6535 19.1205 3.71108 19.1205L13.0447 18.9459C12.5475 20.129 12.2727 21.4285 12.2727 22.7922C12.2727 24.2155 12.572 25.5689 13.1111 26.7929L3.84826 26.8796ZM18.712 32.0948L18.8001 41.7049C18.8001 43.7832 20.5833 45.5844 22.6409 45.5844C24.6985 45.5844 26.4817 43.7832 26.4817 41.7049L26.391 31.8063C25.1196 32.3973 23.7022 32.7273 22.2078 32.7273C20.9775 32.7273 19.7994 32.5036 18.712 32.0948ZM31.3473 26.6942L41.1592 26.6025C43.2168 26.6025 45 24.8012 45 22.7229C45 20.6446 43.2168 18.8434 41.1592 18.8434H31.3271C31.8519 20.0537 32.1429 21.389 32.1429 22.7922C32.1429 24.1774 31.8594 25.4963 31.3473 26.6942ZM26.16 13.6743L26.0702 3.87952C26.0702 1.80121 24.287 0 22.2294 0C20.1718 0 18.3885 1.80121 18.3885 3.87952L18.4775 13.5812C19.6293 13.1143 20.8885 12.8571 22.2078 12.8571C23.6123 12.8571 24.9488 13.1486 26.16 13.6743Z" fill="#F7C331"/>
</svg>
    