<svg width="59" height="110" viewBox="0 0 59 110" fill="none" xmlns="http://www.w3.org/2000/svg">
<path d="M29.4316 110L0.684455 55.4794L0 51.0959V16.9863L29.4316 0L59 16.9863V51.0959L58.3155 55.4794L29.4316 110Z" fill="#00303F"/>
<path d="M7.11825 34.2466C7.11825 36.3014 8.89783 38.0822 10.9512 38.0822L25.7354 37.9452L25.8723 52.7397C25.8723 54.7945 27.6519 56.5753 29.7053 56.5753C31.7586 56.5753 33.5382 54.7945 33.5382 52.7397L33.4013 37.9452L48.1855 37.8082C50.2389 37.8082 52.0185 36.0274 52.0185 33.9726C52.0185 31.9178 50.2389 30.137 48.1855 30.137H33.2644L33.1275 15.3425C33.1275 13.2877 31.348 11.5069 29.2946 11.5069C27.2412 11.5069 25.4616 13.2877 25.4616 15.3425L25.5985 30.137L10.8143 30.411C8.76094 30.411 6.98136 32.1918 7.11825 34.2466Z" fill="#F7C331"/>
<path d="M29.4316 0L0 16.9863V20.9589L3.42227 19.0411L29.4316 3.9726L55.5777 19.0411L59 20.9589V16.9863L29.4316 0Z" fill="#F7C331"/>
<path d="M55.5777 49.0411L29.4316 64.1096L3.42227 49.0411V22.1918L0 24.1096V51.0959L29.4316 68.0822L59 51.0959V24.1096L55.5777 22.1918V49.0411Z" fill="#F7C331"/>
<path d="M29.4317 101.507L7.52912 59.4521L0.68457 55.4795L29.4317 110L58.3157 55.4795L51.4711 59.4521L29.4317 101.507Z" fill="#F7C331"/>
</svg>
