<svg width="14" height="21" viewBox="0 0 14 21" fill="none" xmlns="http://www.w3.org/2000/svg">
<path fill-rule="evenodd" clip-rule="evenodd" d="M12.4736 11.3638C13.4289 10.1672 14 8.65027 14 7C14 3.13401 10.866 0 7 0C3.13401 0 0 3.13401 0 7C0 8.65027 0.571067 10.1672 1.52637 11.3638L7 20.8444L12.4736 11.3638Z" fill="#004F67"/>
<circle r="2" transform="matrix(1 0 0 -1 7 4)" fill="#F7CC31"/>
<path fill-rule="evenodd" clip-rule="evenodd" d="M10.9565 10.8889C10.9565 10.8889 10.9565 10.8889 10.9565 10.8889C10.9565 8.70377 9.18511 6.93237 6.99998 6.93237C4.81485 6.93237 3.04346 8.70377 3.04346 10.8889C3.04346 10.8889 3.04346 10.8889 3.04346 10.8889H10.9565Z" fill="#F7CC31"/>
</svg>
