<svg width="430" height="395" viewBox="0 0 530 395" fill="none" xmlns="http://www.w3.org/2000/svg">
<path d="M112.508 188.77L109.889 199.537L86.0254 183.822L70.6016 164.615L79.041 157.631L112.508 188.77Z" fill="#7A9D96"/>
<path d="M310.98 153.848L298.176 155.303L302.832 108.449L306.324 106.994L317.674 108.449V146.281L310.98 153.848Z" fill="#7A9D96"/>
<path d="M97.666 140.752L82.2422 157.34L113.672 188.188L121.238 180.039L132.879 212.342L124.439 237.66L142.773 251.047L150.922 263.27L174.785 270.545L208.543 278.693L244.338 270.545L266.455 251.047L268.783 236.205L254.232 225.438L244.338 188.188V177.42L260.926 148.318H287.99H299.049L304.287 111.359L301.668 106.412L270.82 97.9727L244.338 86.623H230.66L205.051 90.1152L208.543 102.047L205.051 117.471L195.156 128.238L173.039 132.021L158.197 128.238L147.43 116.016L140.445 104.666L124.439 106.412L113.672 116.016L97.666 140.752Z" fill="#CAE4DB"/>
<path fill-rule="evenodd" clip-rule="evenodd" d="M480.954 372.791C483.939 374.327 486.728 374.326 489.663 375.52C492.576 376.707 493.335 381.624 495.827 382.211C484.278 383.426 472.904 386 461.216 384.721C462.228 380.596 460.41 376.375 462.845 372.506C469.355 366.347 473.587 369 480.954 372.791ZM432.189 89.3362C432.339 92.2358 432.554 93.3883 434.612 95.2589C436.225 96.7245 437.132 94.5395 437.285 97.4019C437.374 99.0532 435.658 99.882 434.994 101.217C431.683 107.866 433.968 116.454 435.595 123.077C438.894 136.507 446.952 151.11 441.274 164.761C440.702 166.138 440.242 169.122 439.136 170.176C437.678 169.405 436.614 169.742 435.942 171.185C435.539 171.638 435.136 172.091 434.734 172.543C432.182 174.903 429.466 175.78 426.079 174.526C419.251 171.998 418.122 164.067 418.086 157.824C418.046 150.942 419.512 143.736 421.079 137.032C421.834 133.804 422.995 130.057 420.832 127.012C418.79 124.135 416.266 125.757 414.254 124.473C412.113 123.106 415.197 113.062 413.087 110.399C409.404 105.748 408.12 117.125 408.061 119.448C407.997 121.993 408.135 124.963 409.335 127.27C410.277 129.082 413.345 130.673 413.871 132.503C414.363 134.213 412.204 138.655 411.871 140.49C411.358 143.318 411.179 146.206 411.032 149.072C410.534 158.754 412.053 168.943 418.717 176.456C421.639 179.751 426.592 183.492 431.225 182.892C435.314 182.362 439.424 180.154 443.238 178.654C445.803 188.507 449.656 198.05 453.761 207.356C457.329 215.445 460.683 223.73 464.431 231.72C472.331 248.561 485.153 262.907 495.171 278.479C504.843 293.512 510.267 310.764 511.568 328.511C511.875 332.708 510.65 338.451 511.628 342.375C512.544 346.054 513.349 347.652 512.749 351.663C512.082 356.122 510.789 360.233 511.345 364.77C511.837 368.794 513.755 374.791 511.659 378.52C509.141 375.836 506.628 374.573 505.101 370.994C503.55 367.363 504.16 364.378 500.645 362.782C497.641 361.418 495.487 361.715 492.837 359.483C489.618 356.771 487.424 353.457 485.838 349.575C483.131 342.95 482.74 335.769 485.028 328.965C486.863 323.511 492.223 313.299 499.738 316.955C498.621 314.662 497.879 312.17 495.749 310.68C493.895 309.383 491.122 308.96 489.051 307.485C486.736 305.836 484.115 304.076 481.531 302.87C480.527 302.402 479.578 302.167 478.541 301.847C477.298 301.463 474.94 301.739 474.787 301.715C470.348 301.044 465.399 298.908 462.688 295.688C460.648 293.264 458.845 291.002 457.287 288.228C455.265 284.629 454.487 284.847 450.608 283.992C444.97 282.75 441.393 281.904 436.884 277.721C431.882 273.082 428.222 267.302 424.563 261.61C422.418 258.275 420.534 258.071 417.039 256.739C415.007 255.966 412.194 252.5 410.344 252.243C409.81 252.169 407.253 253.333 406.388 253.472C404.842 253.722 403.5 253.677 401.951 253.515C398.397 253.142 395.256 252.201 392.867 249.42C385.508 240.856 383.265 220.67 393.34 213.384C395.259 211.997 397.933 211.358 399.066 209.052C400.365 206.407 399.773 201.424 399.669 198.635C399.551 195.452 399.401 191.987 398.926 188.85C398.707 187.407 398.544 186.801 397.956 185.357C396.788 182.493 396.446 182.91 394.042 182.221C390.612 181.24 389.061 181.626 386.958 178.37C385.28 175.773 384.496 172.501 384.343 169.431C384.201 166.566 385.493 163.918 384.414 161.324C382.835 157.526 379.906 154.652 378.621 150.497C377.539 146.997 374.744 139.185 377.499 135.956C378.734 134.509 380.926 134.297 382.15 132.361C384.283 128.989 385.144 127.145 388.309 124.488C390.644 122.527 392.887 119.605 395.701 118.406C398.47 117.227 401.082 119.125 403.33 118.605C405.779 118.037 405.135 112.355 405.815 109.797C406.732 106.347 408.698 102.751 411.078 100.059C411.873 99.1597 412.864 98.9868 413.483 97.7913C414.322 96.1727 413.989 93.8661 414.643 92.0961C415.424 89.981 417.318 86.3399 419.436 85.1804C425.624 81.793 427.482 90.5218 432.189 89.3362ZM417.709 339.827C418.583 342.179 418.099 345.959 419.105 347.984C419.905 349.597 423.118 350.62 424.694 352.544C428.067 356.663 429.352 363.279 428.128 368.364C423.999 367.345 421.239 366.693 417.041 367.231C416.618 358.013 417.014 349.042 417.709 339.827ZM366.685 346.774C369.494 349.907 370.888 353.598 370.482 357.785C370.337 359.275 369.881 361.365 369.442 362.797C368.96 364.368 366.562 367.31 367.493 368.153C364.872 367.996 361.793 368.3 359.905 366.606C358.21 365.085 357.025 361.165 356.337 359.088C357.66 356.447 358.983 353.807 360.307 351.167C361.168 352.533 363.698 356.102 365.787 354.96C367.36 354.101 366.09 348.512 366.685 346.774ZM465.271 322.359C468.485 325.346 469.584 330.731 469.42 334.912C469.473 340.673 467.479 352.206 459.988 352.592C453.969 352.903 447.549 344.282 446.872 338.953C446.13 333.112 448.062 319.143 455.72 317.941C458.539 317.499 463.239 320.47 465.271 322.359ZM411.467 329.809C411.595 333.585 411.658 337.219 411.358 340.983C411.109 344.13 411.942 347.846 411.237 350.86C406.784 345.877 400.918 340.452 401.096 333.129C401.264 326.206 406.999 326.795 411.467 329.809ZM366.586 246.575L370.313 250.661C370.419 256.401 370.306 262.077 372.054 267.613C373.893 273.437 376.975 279.05 380.026 284.316C385.957 294.552 387.371 304.206 388.086 315.912C376.932 310.915 370.849 293.839 367.169 283.157C365.22 277.503 363.199 271.843 361.361 266.153C359.549 260.542 356.345 253.21 358.454 247.299C362.506 250.278 364.259 251.813 366.586 246.575ZM436.091 286.866C441.537 291.198 441.949 297.826 443.904 303.883C442.777 304.784 441.539 305.576 440.52 306.603C439.892 307.237 438.409 309.833 437.926 310.1C435.997 311.167 434.311 309.797 432.426 308.077C428.715 304.688 426.398 297.495 426.572 292.521C426.775 286.711 430.883 282.724 436.091 286.866ZM512.294 261.413C519.374 265.469 517.527 276.689 516.644 283.018C516.09 286.986 517.318 291.021 517.232 294.795C517.137 299.055 514.927 298.172 513.513 300.816C512.286 297.609 510.034 293.75 509.522 290.388L508.709 288.261C509.398 287.985 509.764 287.504 509.806 286.819C510.096 285.19 510.091 283.529 510.182 281.868C510.557 275.003 511.076 268.183 512.294 261.413ZM404.436 268.991C403.653 271.978 403.079 277.6 398.677 275.868C395.203 274.5 394.364 268.979 394.357 265.902C394.351 263.376 394.767 258.735 398.3 258.584C402.637 258.397 404.186 266.073 404.436 268.991ZM370.928 185.816C368 190.506 365.967 197.434 367.351 202.987C368.803 208.819 373.32 210.23 377.338 205.939C380.654 211.16 373.856 220.456 367.779 215.493C366.465 214.421 365.583 212.368 363.959 211.699C362.627 211.151 361.447 211.896 360.088 211.587C355.905 210.636 354.326 206.528 352.683 203.08C353.134 200.27 353.612 197.484 354.22 194.701C354.543 193.221 354.88 191.744 355.208 190.265C355.765 187.753 355.592 188.066 357.413 186.821C362.218 183.538 365.523 183.376 370.928 185.816ZM373.409 188.348L376.923 196.163C375.008 195.702 372.922 201.448 371.671 202.568C371.086 197.786 372.487 192.998 373.409 188.348ZM371.461 161.653C374.639 162.992 375.271 168.794 375.383 171.6C374.51 174.555 373.694 178.334 370.001 176.254C367.536 174.864 366.48 170.29 366.396 167.792C366.29 164.659 367.467 159.97 371.461 161.653Z" fill="#F7CC31"/>
<path fill-rule="evenodd" clip-rule="evenodd" d="M347.657 93.7841C346.348 94.3726 348.846 98.7698 349.234 99.5765C350.249 101.682 351.486 106.034 353.888 104.836C351.811 101.152 349.734 97.4678 347.657 93.7841ZM40.3248 348.915C38.574 348.138 36.2325 354.817 35.9206 356.174C35.0504 359.954 35.7785 362.493 38.8045 364.937C37.552 359.535 39.0525 354.154 40.3248 348.915ZM444.466 62.912C442.288 60.0857 439.143 54.8381 434.744 57.6161C433.007 58.7138 431.67 62.2322 430.598 63.951C428.916 66.6492 427.287 69.2469 426.007 72.1518C428.182 71.2578 429.464 69.3138 431.409 68.251C432.737 67.5252 433.949 67.4554 435.229 66.9263C438.059 65.7576 441.935 64.6116 444.466 62.912ZM89.475 341.385C90.6531 345.996 91.7426 350.593 92.6541 355.263C93.2704 358.424 95.3419 362.889 94.2611 365.981C97.0612 365.604 99.8614 365.228 102.662 364.852C100.584 360.125 99.4912 355.08 98.8742 349.973C98.4965 346.848 98.9808 345.957 96.6259 344.218C94.8024 342.871 91.5919 342.224 89.475 341.385ZM73.9872 164.901C79.371 170.29 84.0796 176.433 89.801 181.454C92.774 184.063 95.8215 186.599 98.8725 189.116C101.46 191.249 105.574 195.953 108.941 196.606C109.357 194.888 110.341 192.071 110.078 190.308C111.06 189.292 110.755 188.55 109.163 188.081C108.188 187.332 107.225 186.57 106.271 185.795C102.529 182.671 98.9872 179.278 95.4408 175.937C91.9155 172.616 88.6544 169.141 85.594 165.389C83.9818 163.413 83.0389 161.431 80.3948 160.85C77.2535 160.161 76.2082 162.61 73.9872 164.901ZM181.587 364.996C181.435 367.924 188.637 369.719 190.825 369.895C196.739 370.369 200.58 367.775 202.616 362.66C206.853 352.014 213.637 342.635 216.474 331.44C217.316 328.119 218.045 326.607 215.045 324.915C213.814 324.221 210.609 322.673 209.271 323.556C207.997 324.397 206.953 328.181 206.134 329.557C204.834 331.742 203.355 333.82 201.943 335.934C195.337 345.823 188.68 355.453 181.587 364.996ZM96.1212 218.382L123.77 234.192C124.923 230.212 125.453 226.062 126.534 222.05C127.304 219.198 129.283 215.171 129.158 212.668C128.971 208.93 126.077 203.969 124.815 200.406C123.242 195.967 121.67 191.527 120.097 187.087C117.967 189.124 115.515 190.546 115.489 193.2C115.474 194.716 116.485 195.663 115.899 197.381C115.488 198.586 113.738 200.187 112.893 201.083C110.425 203.702 110.502 203.833 107.908 201.384C103.979 207.05 100.05 212.716 96.1212 218.382ZM126.539 292.508C126.935 288.699 127.443 285.048 128.3 281.311C128.827 279.014 131.051 274.299 130.32 272.137C129.782 270.547 126.585 269.165 125.34 268.3C121.739 265.798 118.222 263.165 114.656 260.612C111.529 258.373 108.356 256.187 105.288 253.868C102.447 251.72 100.302 249.049 96.8633 248.128C93.8548 247.322 90.0373 247.848 86.9211 247.744C82.7392 247.605 78.4927 247.559 74.3148 247.763C60.2943 248.45 44.5876 247.469 31.099 251.38C24.724 253.228 20.6143 254.315 17.0505 260.354C12.9292 267.338 9.40787 274.594 6.40983 282.138C5.97214 283.24 4.98269 284.829 5.01946 286.033C5.09269 288.331 5.9151 287.801 8.11925 289.112C10.5009 290.528 12.8355 292.209 15.1106 293.804C19.012 296.538 23.8556 299.393 27.9031 301.526C32.7729 304.091 37.6789 306.392 42.6326 308.976C45.7714 310.613 49.0203 311.952 52.0993 313.751C55.4419 315.705 59.1844 316.261 62.7877 317.786C73.9453 322.511 84.7437 326.877 95.6929 332.266C106.38 337.527 117.19 341.972 128.125 346.613C142.257 352.609 156.25 358.156 170.989 362.303C172.068 362.607 174.336 363.678 175.402 363.629C177.681 363.524 178.197 361.859 179.566 359.983C182.256 356.295 184.847 352.537 187.42 348.767C193.002 340.59 198.459 332.323 204.468 324.449C187.441 319.698 171.653 310.932 156.685 301.935C156.047 303.726 155.54 307.694 153.497 308.293C150.971 309.034 149.136 305.535 148.004 303.925C146.932 306.593 145.099 315.593 141.669 315.396C136.931 315.124 137.767 307.665 137.177 304.706C134.565 308.178 131.538 312.17 127.988 306.831C125.528 303.13 125.801 296.635 126.539 292.508ZM323.824 249.978C321.629 249.292 319.447 248.682 317.3 247.913C316.735 246.715 315.797 246.352 314.487 246.823C313.414 246.919 312.37 246.787 311.355 246.424C306.87 245.658 301.901 244.662 297.615 243.369C293.798 242.217 290.198 241.2 286.32 240.334C284.017 239.821 273.76 236.918 272.243 238.627C271.777 239.152 272.579 245.523 272.466 246.659C272.265 248.678 272.166 252.002 270.887 253.683C270.397 254.328 268.528 255.042 267.853 255.545C265.659 257.176 263.632 259.203 261.45 260.895C256.686 264.588 252.045 268.42 247.183 271.992C243.748 274.516 239.815 275.766 235.999 277.599C238.714 278.085 244.027 275.472 246.768 274.662C250.318 273.612 253.801 272.445 257.432 271.483C264.876 269.512 272.503 267.287 280.069 265.188C284.715 263.9 289.623 262.557 294.128 260.85C296.126 260.093 297.694 258.333 299.014 260.125C300.067 261.555 298.793 263.436 297.984 264.496C293.26 270.677 280.434 272.181 273.569 274.746C265.821 277.639 258.176 280.687 250.198 282.719C240.881 285.093 230.767 286.91 222.085 291.079C214.882 294.538 206.722 295.878 199.063 297.908C191.871 299.814 183.342 300.196 176.545 303.432C179.481 305.751 183.825 306.961 187.248 308.52C191.437 310.428 195.67 312.169 199.814 314.192C201.577 315.053 203.423 316.332 205.207 317.047C207.473 317.956 207.182 317.477 209.522 317.292C213.164 317.006 218.077 316.351 221.036 319.003C224.604 322.201 222.343 325.705 222.867 329.618C223.226 332.301 223.409 331.87 226.388 332.28C229.13 332.657 231.869 333.096 234.574 333.682C237.913 334.406 241.33 335.62 244.583 336.667C249.626 338.29 250.174 340.2 255.431 338.105C270.403 332.138 285.888 327.233 300.955 321.587C307.895 318.987 314.865 313.97 321.398 310.201C329.779 305.366 337.357 300.135 343.032 292.085C345.618 288.415 348.315 282.217 347.772 277.662C347.286 273.588 344.272 269.06 342.329 265.557C339.848 261.084 337.664 259.349 333.868 256.377C331.229 254.312 327.152 249.951 323.824 249.978ZM157.088 284.597C157.32 286.846 156.006 296.116 157.308 297.542C159.534 299.98 164.995 297.134 167.108 296.408C173.971 294.048 181.948 294.565 188.937 292.696C195.717 290.884 202.349 288.535 209.167 286.689C212.824 285.698 216.296 284.145 219.893 282.965C223.898 281.652 228.369 280.932 232.083 278.956C231.623 277.813 215.553 280.561 213.726 280.71C207.383 281.225 201.411 280.247 195.159 279.097C181.368 276.561 168.374 270.546 154.761 266.644C155.399 272.922 173.066 274.172 170.962 281.457C170.374 283.488 162.471 286.807 159.857 285.533C154.547 282.944 161.043 279.3 163.69 278.391C159.66 276.081 155.804 273.575 152.127 270.728C148.189 267.681 146.495 263.405 144.384 258.993C139.973 249.769 129.534 244.403 121.425 238.661C112.657 232.452 103.32 227.173 94.5573 220.978C92.9934 219.872 92.2629 220.38 91.7135 218.361C91.1257 216.199 93.2856 213.451 94.3338 211.802C97.0892 207.466 100.298 203.362 103.938 199.732C99.2444 196.538 94.1738 193.9 89.7719 190.284C85.31 186.619 81.6176 182.144 77.6813 177.948C71.3931 191.631 62.5799 204.321 55.659 217.74C52.9252 223.04 51.48 231.056 55.6375 236.192C60.0126 241.597 68.1709 239.493 74.3469 239.78C80.865 240.082 86.8111 240.821 93.2402 242.669C96.1486 243.506 98.7962 243.259 101.592 244.602C104.87 246.177 108.095 248.201 111.214 250.068C117.348 253.739 123.079 258.335 128.871 262.525C131.247 264.243 144.13 274.429 133.94 272.857C133.94 282.388 132.27 292.15 131.393 301.636C133.81 298.75 135.533 295.818 136.996 292.35C137.865 290.288 137.876 285.024 140.774 286.272C145.134 288.148 141.738 301.938 141.738 305.669C142.818 303.581 143.575 301.334 144.352 299.122C144.941 297.446 145.678 292.695 146.907 291.571C151.022 287.81 151.599 298.068 151.599 300.208C152.932 296.427 153.177 292.391 153.31 288.396C153.363 286.819 152.973 284.367 153.372 282.842C154.034 280.3 153.955 280.466 156.617 279.392C156.774 281.126 156.931 282.862 157.088 284.597ZM284.206 365.037C284.533 368.263 285.781 370.597 283.66 373.498C287.759 373.205 291.794 372.844 295.9 372.948C299.196 373.032 304.126 373.786 307.201 372.374C308.454 371.799 308.88 372.789 309.525 371.69C310.136 370.646 308.699 367.18 308.527 366.321C307.698 362.195 307.294 357.963 306.541 353.812C306.024 350.959 304.505 345.348 306.414 342.652C309.223 338.685 310.46 344.274 311.192 346.755C313.602 354.929 313.463 362.693 313.463 371.092C317.093 371.092 321.862 369.507 325.363 368.551C330.192 367.231 335.349 365.875 340.028 364.152C344.441 362.528 348.327 360.157 351.117 356.341C353.204 353.487 357.832 346.445 356.682 343.289C355.273 339.42 348.553 336.759 344.964 336.334C340.308 335.782 335.536 336.717 330.771 337.11C325.671 337.531 320.722 338.666 315.676 339.213C310.776 339.743 304.198 341.378 299.437 340.153C299.313 342.111 300.951 344.744 301.521 346.738C302.269 349.352 302.937 351.99 303.544 354.64C304.194 357.477 308.218 367.675 304.558 369.714C300.262 372.107 298.212 361.859 297.677 359.361C296.401 353.404 295.305 347.453 296.64 341.465C291.157 340.477 284.544 341.945 278.889 342.334C280.996 349.755 282.355 357.527 284.206 365.037ZM48.0326 368.264C49.9394 369.112 52.5597 368.657 54.6323 368.82C57.8713 369.074 61.1435 369.659 64.404 369.555C69.3792 369.397 74.5948 368.768 79.5741 368.198C76.7338 363.076 75.0104 358.226 74.6559 352.355C74.5285 350.246 73.4092 337.167 77.3007 337.726C79.1783 337.996 78.7796 349.164 79.144 351.222C79.6736 354.206 80.3569 357.262 81.1886 360.184C81.7922 362.303 83.8456 365.477 83.3195 367.769C85.8298 367.362 88.3406 366.955 90.8515 366.548C88.8994 362.656 87.4734 359.168 86.7424 354.827C86.3891 352.732 86.6143 350.124 85.9293 348.134C85.4974 346.88 84.5126 345.7 84.3811 344.648C84.2292 343.435 85.5585 340.453 85.0667 339.375C84.5836 338.315 81.2201 337.335 80.0415 336.751C76.7931 335.141 74.8893 334.734 71.2487 335.659C64.2265 337.444 53.1627 338.71 47.9255 343.524C42.7373 348.292 40.8492 364.377 48.0326 368.264ZM354.715 135.806C356.659 135.586 358.584 135.451 360.537 135.35C357.683 131.333 355.09 127.134 352.723 122.812C351.563 120.694 350.467 118.543 349.418 116.369C348.214 113.874 348.247 112.244 345.632 111.749C342.01 111.062 337.165 112.434 333.439 112.278C330.561 112.157 324.097 109.448 321.778 110.43C323.892 114.763 322.195 121.506 322.278 126.171C322.36 130.811 321.784 135.295 320.968 139.87C325.907 139.87 332.09 138.165 337.076 137.403C342.882 136.516 348.801 136.47 354.715 135.806ZM276.3 373.964C278.203 373.72 280.012 373.645 281.932 373.645C277.605 366.629 274.338 358.784 274.301 350.425C274.296 349.332 275.611 343.048 275.176 342.526C274.328 341.509 270.81 342.312 269.847 342.408C265.906 342.802 261.525 342.772 257.814 344.192C255.254 345.172 255.226 344.58 254.208 347.593C253.606 349.376 253.173 351.411 253.161 353.285C253.136 357.072 254.344 361.499 255.905 364.908C257.392 368.154 259.74 371.635 262.97 373.379C266.692 375.388 271.936 374.192 276.3 373.964ZM315.646 113.343C314.898 110.548 315.221 111.179 312.733 110.832C312.209 110.759 306.51 110.877 306.182 111.211C305.806 111.597 305.949 117.287 305.9 117.938C305.731 120.171 305.481 122.397 305.238 124.622C304.252 133.655 302.379 142.399 300.975 151.358C304.444 149.206 309.457 152.14 312.42 149.81C314.762 147.969 314.411 142.078 314.586 139.479C315.17 130.779 315.37 122.057 315.646 113.343ZM440.896 102.794C440.584 103.295 440.272 103.796 439.96 104.297C441.171 105.074 448.261 97.175 449.838 95.7619C451.938 93.8802 455.261 91.3675 456.208 88.6163C457.309 85.4192 456.226 80.3718 455.96 77.0659C455.769 74.6999 456.174 71.4277 454.245 69.7748C452.47 68.2539 448.097 68.2946 445.994 68.62C439.685 69.5967 435.891 74.7849 432.706 79.7287C435.94 79.3311 447.34 74.1266 448.664 76.9413C450.588 81.0307 438.615 84.687 437.431 88.2752C439.882 89.1407 445.288 85.7835 443.767 91.3693C443.507 92.1509 443.054 92.7982 442.41 93.3109C441.29 93.7073 441.025 94.454 441.614 95.5518C441.113 97.7396 441.216 100.508 440.896 102.794ZM513.513 300.816C513.547 302.142 513.669 303.41 514.753 304.347C517.156 296.734 517.907 289.118 518.903 281.202C519.899 273.284 520.96 265.17 521.118 257.259C521.295 248.393 520.457 238.748 519.023 229.988C517.901 223.14 517.033 214.713 512.95 208.885C515.269 223.989 514.548 238.309 512.984 253.467C512.154 261.515 510.983 269.501 510.445 277.584C510.303 279.719 510.258 281.88 510.072 284.011C509.963 285.266 508.72 287.645 508.709 288.261C508.648 291.683 512.311 297.674 513.513 300.816ZM390.148 289.052C392.076 293.489 394.269 297.859 395.425 302.578C396.646 307.56 396.12 312.2 396.316 317.249C396.64 325.625 395.968 333.951 396.086 342.339C396.186 349.488 395.912 356.459 395.983 363.532C396.029 368.007 395.784 372.465 395.799 376.937C395.799 376.924 395.977 380.951 395.669 381.156C394.288 382.073 392.779 380.77 392.355 379.516L388.261 384.148C390.407 383.609 393.046 382.483 395.252 382.383C396.097 382.072 396.938 382.064 397.776 382.357C398.608 382.86 399.224 383.561 399.625 384.46C405.405 385.691 408.874 380.547 409.912 375.947C412.164 365.967 411.353 356.114 411.189 346.038C410.835 324.149 414.313 302.391 413.984 280.5C413.921 276.264 413.759 272.078 414.396 267.85C415.577 259.995 417.322 267.185 417.602 270.892C418.444 282.031 419.909 293.525 419.103 304.733C418.378 314.831 418.445 325.023 417.942 335.152C417.407 345.918 416.546 356.456 417.042 367.231C419.933 366.861 429.232 366.31 430.2 370.371C431.045 373.913 427.646 372.603 425.881 372.453C423.019 372.21 420.222 372.882 417.093 372.321C417.324 377.086 417.981 383.475 413.724 386.692C411.629 388.274 408.161 389.703 405.714 390.636C403.316 391.551 399.255 393.577 396.757 393.466C394.989 393.388 394.308 392.436 392.369 392.588C389.491 392.814 387 394.739 383.95 393.149C378.164 390.134 381.008 381.363 384.661 377.848C385.603 376.941 386.661 375.95 387.925 375.508C388.526 375.298 391.039 375.552 391.329 375.237C392.399 374.076 391.063 367.284 390.921 365.994C390.17 359.232 389.353 352.326 389.045 345.534C388.756 339.148 388.434 332.749 388.214 326.361C388.167 324.97 388.783 322.11 388.201 320.894C387.232 318.873 382.98 317.587 381.136 316.646C382.779 332.746 385.194 350.051 379.245 365.386C378.063 368.431 376.738 372.778 373.742 374.472C370.919 376.069 364.27 375.843 360.887 376.033C357.249 376.237 353.688 375.388 351.684 371.972C350.107 369.284 351.052 366.06 354.29 364.887C356.229 364.186 356.606 364.637 358.305 365.471C358.673 366.069 358.932 366.713 359.081 367.401H360.387C362.156 368.19 369.228 369.073 371.172 367.813C373.426 366.355 373.916 362.412 374.877 360.069C376.662 355.716 377.134 352.184 377.782 347.531C378.796 340.249 377.769 331.805 377.788 324.217C377.794 322.081 377.803 319.943 377.806 317.807C377.81 314.579 378.091 314.599 376.249 312.276C373.474 308.774 370.31 305.196 367.34 301.839C368.949 311.646 368.29 321.971 367.651 331.741C367.293 337.23 366.55 342.82 366.209 348.237C366.107 349.864 367.276 354.351 365.386 355.071C363.469 355.801 361.082 352.396 360.307 351.166C356.079 359.603 351.033 367.74 342.31 372.105C337.825 374.349 333.155 375.362 328.26 376.242C323.725 377.058 319.535 378.545 315.064 379.247C305.811 380.699 297.288 380.905 287.977 380.588C279.192 380.288 270.781 381.911 262.024 379.868C258.606 379.071 255.153 377.608 252.817 374.991C251.542 373.564 250.978 371.316 249.693 370C249.403 368.297 248.401 367.772 246.686 368.424C245.61 368.473 244.537 368.437 243.468 368.317C234.685 367.856 224.925 368.37 216.414 365.862C213.184 364.909 209.578 363.341 211.189 359.298C212.598 355.765 216.485 356.838 219.672 357.146C228.93 358.043 238.044 359.679 247.435 360.503C247.133 355.596 247.394 350.59 249.317 345.999C242.802 345.181 236.047 343.948 229.848 341.868C227.934 341.225 226.028 340.558 224.129 339.871C220.999 338.739 221.65 338.446 219.837 340.422C217.559 342.903 216.164 348.082 214.513 351.08C212.656 354.455 210.874 357.791 209.309 361.314C207.828 364.648 206.723 369.113 204.466 371.986C199.501 378.305 188.034 378.853 181.286 376.371C177.981 375.154 176.788 374.963 174.785 372.001C172.59 368.755 172.044 368.566 168.001 368.125C160.699 367.33 153.808 365.497 146.968 362.966C139.742 360.293 132.321 358.208 125.116 355.322C118.371 352.62 111.851 349.902 104.872 347.792C104.044 353.056 107.476 358.992 107.476 364.419C111.536 364.013 115.323 363.657 119.348 363.011C120.784 362.78 129.827 360.751 130.709 361.949C134.387 366.94 117.652 369.288 115.037 369.947C106.655 372.063 98.1077 374.028 89.6729 375.663C81.0635 377.332 72.6706 378.993 63.9308 379.293C49.142 379.8 28.7435 378.946 29.4495 359.516C29.7266 351.902 32.8632 343.64 38.8651 338.674C42.5994 335.585 47.2562 333.887 51.8217 332.489C53.5084 331.972 62.3943 330.765 62.6643 330.1C60.1604 328.305 55.8807 327.838 52.9101 326.455C50.0779 325.136 47.0892 324.644 44.1901 323.315C38.3971 320.659 32.802 317.413 27.4456 314.129C23.1857 311.517 18.8787 308.633 14.957 305.528C11.8408 303.061 8.85436 300.689 6.36327 297.869C5.05952 296.394 2.75176 295.087 1.7076 293.817C-1.9592 289.354 1.90782 280.475 3.46941 275.28C5.75039 267.686 8.79441 259.605 13.2836 253.027C17.412 246.978 22.0147 242.902 29.4199 241.485C36.2547 240.177 43.1273 239.763 50.1175 239.396C48.9429 234.927 47.2894 231.774 47.709 226.873C48.1048 222.251 50.4388 217.658 52.2704 213.448C55.6759 205.623 58.8887 197.963 63.5461 190.758C66.1059 186.799 68.9811 183.04 71.7754 179.246C72.2259 178.634 75.0267 175.835 74.9196 175.047C74.8131 174.264 72.0007 171.879 71.57 171.332C68.6779 167.661 66.6786 163.708 70.0747 159.778C71.8453 157.73 77.051 153.592 79.5566 156.195C82.266 150.721 87.0049 146.988 90.6944 142.331C95.2942 136.523 99.6862 130.627 103.992 124.544C108.279 118.488 111.781 111.981 117.464 107.1C123.797 101.661 129.759 102.132 137.537 104.457C137.982 101.456 138.599 101.856 141.501 100.854C143.698 100.096 145.833 99.1958 147.992 98.3397C150.288 97.4288 152.611 96.912 154.958 96.1961C158.084 95.2427 158.554 95.5541 159.062 91.4944C159.677 86.5891 157.577 81.4026 156.224 76.7818C155.555 74.502 155.091 71.664 153.588 70.1304C152.227 68.7434 149.816 68.1119 148.328 66.5782C135.511 53.3655 135.309 25.1545 148.962 12.8748C151.616 10.4879 153.804 7.27682 157.107 5.66518C160.734 3.89522 165.517 2.46401 169.512 1.62995C177.745 -0.0882017 186.979 0.457161 193.488 6.24488C196.697 9.09916 198.655 13.6361 199.749 17.6888C200.794 21.5599 200.57 28.1031 196.608 22.1204C194.109 18.3471 191.938 14.4987 187.709 12.6321C183.929 10.9646 179.313 10.0642 175.195 10.418C165.491 11.2515 157.626 14.1011 150.908 21.284C143.481 29.2258 143.103 41.9054 144.704 52.0042C146.115 49.0172 147.071 44.2876 151.026 43.7172C154.323 43.2417 159.52 47.4509 157.75 51.0747C149.722 49.0283 147.374 61.1683 154.316 61.8993C156.418 62.1205 159.08 58.3792 161.015 59.2505C164.634 60.879 159.784 66.4909 158.828 68.3389C158.319 68.6514 157.811 68.964 157.303 69.2771C157.804 70.44 158.309 71.6012 158.819 72.76C159.438 74.2378 160.027 75.719 160.571 77.2265C161.894 80.895 163.266 84.6777 164.063 88.4993C164.873 92.3849 165.294 96.9224 163.378 100.573C161.273 104.585 159.29 104.092 157.673 100.275C153.439 102.944 149.182 105.789 144.205 106.842C149.424 115.598 156.18 123.125 166.339 125.88C174.949 128.214 185.787 128.129 194.003 124.267C202.528 120.26 207.219 110.894 206.204 101.575C205.875 98.5574 204.118 88.075 208.297 95.6577C210.588 99.8163 210.756 106.562 210.234 111.122C207.735 132.936 185.623 141.096 166.556 135.845C156.775 133.151 149.727 125.94 144.479 117.451C143.255 115.471 142.135 113.428 141.042 111.374C140.605 110.554 140.22 109.408 139.637 108.688C137.351 105.867 139.597 107.439 137.17 107.085C133.415 106.539 127.506 109.415 124.717 111.694C117.151 117.876 112.961 127.764 107.154 135.555C100.971 143.849 93.1197 151.231 85.2436 157.849C94.1528 166.975 103.061 176.099 111.971 185.224C113.811 183.187 117.31 178.531 117.799 175.807C118.086 174.21 116.798 168.956 120.759 171.294C123.434 172.874 124.448 179.633 125.282 182.398C126.571 186.669 128.741 190.691 130.143 194.918C132.745 202.76 135.95 210.533 138.615 218.431C139.699 221.643 142.789 225.629 139.82 228.348C135.308 232.479 133.966 224.345 132.771 221.238C131.107 223.551 131.323 227.303 130.465 230.001C129.941 231.649 128.346 234.215 128.399 235.839C128.489 238.616 131.01 239.442 133.282 240.994C137.508 243.881 141.844 246.699 145.716 250.061C147.331 251.464 148.817 252.883 149.995 254.687C151.024 256.263 151.334 259.814 152.471 260.911C153.959 262.344 159.458 261.345 162.362 261.657C167.211 262.179 172.125 263.903 176.832 265.142C185.162 267.334 193.73 270.491 202.454 271.662C211.021 272.812 219.061 272.241 227.6 270.709C232.264 269.872 237.274 268.872 241.53 266.629C246.433 264.046 250.78 259.913 255.359 256.792C257.409 255.396 259.505 254.075 261.601 252.751C264.402 250.981 263.669 251.364 263.852 248.553C264.063 245.299 265.421 239.085 263.248 236.189C262.34 234.98 259.555 234.096 258.244 233.217C256.338 231.937 254.628 230.45 252.585 229.421C250.355 228.297 250.289 229.187 249.254 226.43C248.314 223.926 247.693 221.303 246.83 218.773C242.88 207.2 241.86 195.448 240.223 183.364C239.463 177.751 237.597 170.114 239.71 164.646C242.648 157.042 245.107 167.677 245.727 170.403C248.531 165.599 250.143 160.256 253.061 155.513C254.762 152.747 255.594 151.334 256.553 148.304C256.941 147.077 257.097 146.058 257.917 145.039C259.653 142.883 259.91 144.112 261.715 144.059C267.394 143.892 272.976 144.038 278.66 144.302C281.801 144.447 284.943 144.524 288.106 144.512C289.647 144.506 291.207 144.431 292.747 144.52C293.577 144.511 294.403 144.573 295.225 144.705C296.921 145.497 297.568 144.815 297.167 142.658C298.644 139.57 298.545 134.641 299.068 131.271C299.594 127.879 300.082 124.481 300.522 121.076C300.756 119.256 302.73 112.389 301.682 110.894C300.645 109.411 295.237 109.743 293.637 109.477C283 107.709 273.105 103.326 263.156 99.7348C258.258 97.9672 253.608 95.5803 248.91 93.4116C246.465 92.2825 244.153 89.9573 241.576 89.2332C238.323 88.3194 234.004 89.7803 230.761 90.3304C224.584 91.3786 218.624 92.2965 212.356 92.6375C210.141 92.758 205.928 93.379 203.93 91.857C199.917 88.8002 204.487 87.0128 207.11 86.6269C218.714 84.9204 230.282 83.9396 241.975 83.2272C242.523 83.1941 244.531 82.7861 245.199 82.9968C246.722 83.4775 246.108 84.0351 247.02 84.531C248.711 85.4494 250.64 86.1258 252.784 86.6956C258.908 88.3218 265.074 91.0503 271.218 93.1945C282.273 97.0522 295.481 103.203 306.537 102.122C309.266 101.855 311.509 101.514 314.362 101.791C317.703 102.115 319.653 103.828 322.219 104.326C325.658 104.993 330.577 104.492 334.196 104.62C337.648 104.743 341.102 104.903 344.555 104.903C341.523 98.8053 339.676 93.0805 337.972 86.532C337.042 82.9607 335.643 79.717 336.249 75.9559C336.536 74.1807 337.245 72.5126 338.019 70.9091C339.186 68.4885 339.518 68.9948 339.932 66.314C340.503 62.6245 339.685 58.7342 340.133 55.0337C340.593 51.2359 343.463 47.8508 343.783 44.2201C343.953 42.2883 342.872 40.7116 343.196 38.6279C343.485 36.7643 344.589 34.8104 345.58 33.2412C347.888 29.5849 350.699 27.5117 354.6 26.0223C357.736 24.8251 361.738 23.7268 364.906 25.6655C368.139 27.6433 367.905 31.6238 369.454 34.5281C372.785 40.7733 380.469 46.3544 386.594 49.5439C392.221 52.4739 398.283 54.3247 404.316 56.2355C407.988 57.3984 411.764 58.2278 415.372 59.5566C417.97 60.5135 422.206 62.834 424.851 61.4244C427.157 60.1957 429.846 56.4462 432.127 54.7054C434.797 52.6689 438.357 50.6812 441.719 52.4553C445.08 54.2287 444.804 60.7661 447.419 61.9953C448.329 62.4237 451.035 61.1688 452.277 61.3667C454.282 61.6857 455.664 62.9272 456.866 64.4556C461.357 70.167 462.748 79.2264 462.944 86.2672C463.043 89.7838 462.957 94.1578 460.809 97.1436C458.304 100.626 453.563 100.713 450.347 103.164C447.775 105.124 445.953 108.329 443.343 110.417C441.734 111.705 441.114 110.716 440.448 112.722C440.014 114.027 440.89 116.573 441.149 117.835C442.748 125.624 445.742 132.808 448.584 140.228C449.922 143.724 451.058 147.221 451.669 150.926C452.07 153.357 451.607 155.483 451.801 157.822C451.939 159.487 452.647 160.926 452.491 162.633C452.161 166.249 450.197 169.444 448.948 172.624C447.524 176.25 449.48 182.53 450.914 186.28C454.35 195.264 459.183 204.341 463.477 212.973C467.694 221.453 470.831 230.483 475.745 238.629C480.517 246.54 486.132 254.286 491.561 261.768C494.582 265.93 497.786 269.889 500.524 274.255C501.122 275.209 505.207 283.125 506.266 282.851C504.967 269.037 506.28 254.669 506.861 240.864C507.588 223.583 505.388 207.929 500.525 191.433C499.389 187.577 498.375 183.631 497.576 179.69C497.016 176.93 495.435 174.663 499.315 175.869C505.74 177.866 511.395 189.996 514.662 195.275C521.978 207.1 528.089 222.87 528.909 236.74C529.714 250.353 529.019 263.379 527.318 276.792C526.478 283.409 525.122 290.786 523.049 297.114C521.983 300.37 520.702 303.741 519.282 306.861C518.682 308.177 517.366 309.665 517.139 311.111C516.779 313.406 518.461 316.502 518.881 318.769C520.256 326.185 520.572 333.87 520.104 341.395C519.853 345.432 519.295 349.042 517.978 352.838C516.3 357.674 517.08 361.368 517.779 366.353C518.526 371.688 519.242 383.814 513.694 386.846C513.303 386.805 512.91 386.765 512.518 386.725C511.526 385.582 510.646 385.65 509.878 386.928C508.443 387.396 507.042 388.602 505.531 389.12C502.024 390.324 498.24 390.398 494.583 390.927C487.424 391.963 480.29 393.792 473.257 394.013C464.929 394.275 456.241 393.948 448.099 392.488C446.416 392.186 444.448 391.388 442.765 391.235C440.481 391.027 438.877 392.547 436.519 392.189C432.864 391.636 430.554 387.768 430.315 384.598C429.554 374.497 435.157 369.865 444.315 368.072C438.398 359.6 431.585 352.65 430.011 341.77C428.461 331.065 431.822 318.676 437.927 310.1C443.787 301.867 453.786 296.363 464.098 298.452C468.884 299.422 491.463 306.088 487.098 313.649C486.13 310.19 480.178 310.86 477.302 310.36C472.53 309.531 467.76 308.282 462.919 308.539C453.398 309.045 444.196 314.677 439.586 323.202C434.271 333.031 436.696 342.839 443.095 351.231C448.946 358.904 454.977 366.965 462.845 372.506C461.324 374.924 461.874 375.683 458.853 375.25C456.779 374.952 454.838 373.335 452.742 372.932C448.395 372.097 441.552 375.66 438.866 379.222C437.279 381.326 437.338 382.366 440.264 383.662C442.423 384.619 445.824 384.125 448.143 384.332C453.913 384.847 459.794 385.019 465.582 384.999C475.602 384.962 484.92 383.355 494.836 382.314C499.231 381.852 503.827 382.384 508.127 380.767C513.952 378.577 512.525 372.143 511.77 366.932C511.022 361.77 511.783 357.766 512.594 352.654C512.946 350.434 513.602 347.87 513.137 345.635C512.586 342.98 511.596 341.805 511.722 338.844C512.171 328.305 510.849 317.206 508.056 307.035C501.989 284.942 487.175 267.506 474.821 248.73C471.331 243.426 467.663 238.401 464.885 232.657C462.253 227.216 460.441 221.461 457.828 216.004C452.068 203.978 446.604 191.589 443.238 178.653C439.424 180.154 435.314 182.362 431.225 182.892C426.592 183.492 421.639 179.751 418.717 176.456C412.054 168.943 410.534 158.754 411.032 149.072C411.179 146.207 411.358 143.318 411.871 140.49C412.204 138.655 414.363 134.213 413.871 132.503C413.345 130.673 410.277 129.083 409.336 127.27C408.135 124.963 407.997 121.993 408.062 119.448C408.121 117.125 409.404 105.748 413.087 110.398C415.197 113.062 412.113 123.106 414.254 124.473C416.181 125.703 418.836 124.2 420.833 127.012C422.991 130.05 421.835 133.796 421.079 137.032C419.515 143.724 418.046 150.951 418.086 157.824C418.122 164.082 419.241 171.995 426.079 174.526C429.534 175.805 432.157 174.925 434.734 172.543C435.324 171.864 435.927 171.195 436.541 170.537C437.105 169.568 437.97 169.447 439.136 170.176C439.999 169.49 441.279 164.752 441.711 163.694C447.007 150.714 438.657 135.812 435.595 123.077C433.723 115.288 432.09 107.475 435.88 99.9571C436.494 98.7401 438.184 97.6826 437.17 95.9365C436.903 95.4773 434.351 95.2619 433.747 94.7282C431.779 92.9908 432.189 89.7518 432.189 87.4324C427.637 88.8363 426.325 85.2946 426.917 80.9538C423.521 81.4922 421.163 82.5306 419.906 78.6018C418.791 75.1178 420.475 71.5651 421.591 68.3185C405.881 66.6347 388.913 64.4771 376.392 53.6362C373.305 50.9629 370.738 47.5982 368.598 44.1124C368.212 43.4821 366.391 39.0447 365.787 38.813C363.994 38.1245 362.49 41.633 360.896 42.5019C359.479 43.2737 357.466 43.6992 355.892 44.1695C354.41 44.6124 349.189 44.7009 348.263 45.4697C345.948 47.3927 346.13 58.5101 346.112 61.0903C346.05 69.9767 348.033 78.8323 351.702 86.9231C355.157 94.5431 360.443 105.022 367.354 110.009C369.1 111.27 370.672 111.923 372.885 111.819C374.466 111.745 376.033 110.638 377.679 111.214C381.844 112.671 380.355 115.567 377.152 116.936C367.999 120.85 360.285 112.244 354.992 106.232C353.442 113.365 360.629 121.807 364.432 127.627C366.855 131.336 369.251 135.049 371.556 138.834C373.23 141.583 376.52 146.659 370.676 144.536C367.857 159.332 360.119 172.273 356.168 186.652C352.111 201.412 348.575 218.266 348.575 233.638C351.664 231.487 353.221 221.689 357.376 229.188C357.825 230 357.684 231.343 358.277 232.051C359.096 233.032 360.082 232.76 361.338 233.459C363.328 234.566 364.612 236.775 362.833 238.69C365.125 238.156 367.525 238.428 368.02 241.139C368.297 242.66 366.069 249.708 364.406 250.284C359.339 252.038 353.72 241.921 352.347 238.703C349.181 241.88 345.534 244.324 342.616 239.185C340.442 235.355 341.704 229.561 342.01 225.392C342.628 216.993 343.435 208.801 344.647 200.483C346.919 184.886 352.686 171.014 359.77 156.975C361.721 153.111 363.882 149.156 365.624 145.202C368.251 139.237 364.14 140.644 360.122 141.51C352.249 143.208 344.006 144.525 336.051 145.126C331.899 145.44 326.582 145.627 322.592 146.827C319.787 147.671 320.268 147.088 319.141 150.093C318.637 151.437 318.068 152.867 317.18 154.019C312.647 159.892 300.906 158.909 294.422 158.472C294.815 155.995 295.203 153.516 295.611 151.041C290.619 152.214 284.691 153.031 279.55 152.971C276.783 152.939 273.839 152.517 271.079 152.288C269.043 152.118 265.184 150.675 263.269 151.236C261.048 151.888 257.689 159.918 256.419 162.507C254.034 167.37 249.773 172.773 248.269 177.893C246.935 182.432 249.657 190.264 250.512 194.782C251.748 201.314 252.874 207.858 254.945 214.191C256.446 218.782 258.177 225.112 262.787 227.402C267.38 229.685 270.682 230.969 275.653 230.504C284.408 229.686 293.723 231.03 302.366 232.732C311.266 234.484 319.416 235.274 327.868 238.397C347.037 245.482 359.244 267.307 352.017 287.301C347.86 298.801 341.012 307.347 330.966 314.461C325.847 318.087 319.799 321.028 314.187 323.821C311.61 325.104 309.077 326.661 306.451 327.8C304.532 328.633 301.234 330.55 299.149 330.76C301.463 331.861 303.511 330.83 305.919 330.489C309.325 330.004 312.804 329.9 316.223 329.478C321.545 328.819 326.788 328.322 332.112 327.661C336.656 327.097 341.783 326.897 346.299 327.547C348.48 327.86 351.763 328.48 353.706 329.531C355.234 330.357 356.635 332.262 358.278 333.205C360.085 325.784 359.24 316.635 359.325 309.009C359.394 302.783 359.671 296.695 360.258 290.499C360.913 283.569 356.674 275.688 355.108 268.9C353.643 262.547 349.74 254.496 351.177 247.865C352.989 239.506 357.73 254.522 358.382 256.669C360.423 263.386 362.793 269.943 365.055 276.582C367.745 284.478 370.456 292.129 374.375 299.529C377.636 305.686 381.384 312.909 388.086 315.912C387.533 306.857 386.919 298.473 383.155 290.124C379.585 282.207 374.141 275.167 371.761 266.684C370.579 262.468 370.406 258.157 370.347 253.803C370.307 250.874 370.442 246.936 373.584 250.094C376.075 252.599 376.559 260.588 377.65 263.96C378.175 265.583 378.903 267.073 379.483 268.651C379.745 269.362 381.504 272.826 381.504 273.29C383.318 278.764 387.329 284.015 390.148 289.052Z" fill="#004F67"/>
<path fill-rule="evenodd" clip-rule="evenodd" d="M197.751 89.4902C197.924 91.6106 199.154 97.1061 197.579 98.7841C195.491 101.01 194.502 98.1468 193.599 95.8891C191.712 91.1712 190.775 82.035 194.503 78.1034C198.396 73.9977 206.087 73.8872 210.241 69.7984C211.908 68.1559 211.748 68.4987 211.603 65.9308C211.521 64.4809 210.583 62.5544 210.129 61.2513C208.951 57.865 207.658 54.5195 206.425 51.153C204.271 52.1349 201.171 55.1638 199.049 52.625C197.088 50.2776 200.351 46.4316 202.624 45.7454C201.437 43.1513 195.847 43.6308 194.782 39.8203C193.856 36.5085 196.515 37.8245 197.097 36.5202C197.781 34.9854 196.38 32.9104 197.101 31.4961C199.604 26.5855 202.376 35.6145 203.623 37.2262C205.942 40.2236 209.983 40.8784 210.338 45.4124C210.558 48.2039 210.348 49.5018 211.498 52.2432C212.557 54.7668 213.815 57.1869 214.703 59.784C216.04 63.697 218.102 70.8181 215.489 74.6071C213.285 77.8031 207.935 80.2394 204.455 81.606C202.713 82.2899 200.297 82.7067 198.887 84.0389C197.047 85.7769 197.62 86.8449 197.751 89.4902Z" fill="#004F67"/>
<path fill-rule="evenodd" clip-rule="evenodd" d="M378.53 207.815C378.133 207.19 377.735 206.565 377.338 205.939C374.585 208.88 371.536 210.089 368.753 206.353C365.887 202.507 366.963 196.74 368.078 192.539C368.651 190.378 371.551 181.855 373.409 188.348C373.819 189.781 372.448 192.971 372.2 194.374C371.713 197.126 371.328 199.765 371.672 202.568C374.9 199.679 376.481 192.354 379.757 199.96C380.945 202.718 381.075 207.26 384.238 203.071C385.926 200.833 386.035 196.703 386.825 194.067C392.216 195.356 391.234 203.329 389.434 207.214C386.568 213.399 382.669 211.407 378.53 207.815Z" fill="#004F67"/>
<path fill-rule="evenodd" clip-rule="evenodd" d="M397.406 69.0646C399.324 72.2629 395.696 78.1117 395.039 81.3955C398.251 81.0236 406.201 73.275 408.439 74.5526C413.097 77.2113 403.258 86.4842 401.367 87.8433C386.258 98.7028 388.982 67.29 397.406 69.0646Z" fill="#004F67"/>
<path fill-rule="evenodd" clip-rule="evenodd" d="M378.46 104.681C384.105 103.109 391.716 113.24 388.055 118.257C385.428 121.856 382.183 119.798 381.36 116.63C380.941 115.014 381.312 113.067 380.764 111.265C380.088 109.046 379.183 106.885 378.46 104.681Z" fill="#004F67"/>
<path fill-rule="evenodd" clip-rule="evenodd" d="M204.845 61.0125C209.138 64.6205 200.366 73.4167 195.969 66.5289C194.76 64.6344 194.54 62.9052 196.333 62.2056C197.239 61.8529 199.374 63.0082 200.652 62.8039C202.053 62.5799 203.575 61.5945 204.845 61.0125Z" fill="#004F67"/>
<path fill-rule="evenodd" clip-rule="evenodd" d="M190.095 46.5852C188.429 44.5073 183.748 31.7259 189.549 34.5726C192.462 36.0021 194.869 46.9286 190.095 46.5852Z" fill="#004F67"/>
<path fill-rule="evenodd" clip-rule="evenodd" d="M381.629 321.485C381.464 319.873 381.299 318.259 381.135 316.646C383.277 317.738 387.574 318.817 388.32 321.262C389.72 325.855 383.217 322.181 381.629 321.485Z" fill="#004F67"/>
<path fill-rule="evenodd" clip-rule="evenodd" d="M443.807 126.933C442.531 125.21 438.563 110.834 442.005 111.163C442.608 116.378 442.732 121.794 443.807 126.933Z" fill="#004F67"/>
<path fill-rule="evenodd" clip-rule="evenodd" d="M390.148 289.052C387.329 284.015 383.318 278.764 381.504 273.29C385.756 276.733 389.078 283.768 390.148 289.052Z" fill="#004F67"/>
<path fill-rule="evenodd" clip-rule="evenodd" d="M505.751 277.375C505.923 279.201 506.095 281.026 506.266 282.851C503.712 283.511 505.595 277.977 505.751 277.375Z" fill="#004F67"/>
<path fill-rule="evenodd" clip-rule="evenodd" d="M381.509 273.298C380.301 271.983 379.783 270.365 379.483 268.652C380.159 270.2 380.834 271.749 381.509 273.298Z" fill="#004F67"/>
<path fill-rule="evenodd" clip-rule="evenodd" d="M396.129 355.947C396.174 354.323 396.219 352.698 396.263 351.078C396.219 352.703 396.174 354.325 396.129 355.947Z" fill="#004F67"/>
<path fill-rule="evenodd" clip-rule="evenodd" d="M205.154 92.3701C206.236 92.5046 207.318 92.639 208.4 92.7735C207.546 93.1733 205.534 93.7047 205.154 92.3701Z" fill="#004F67"/>
<path fill-rule="evenodd" clip-rule="evenodd" d="M420.858 372.996C421.984 372.826 423.113 372.439 424.219 373.062C423.097 373.041 421.978 373.018 420.858 372.996Z" fill="#004F67"/>
<path fill-rule="evenodd" clip-rule="evenodd" d="M388.699 336.299C388.714 337.502 388.729 338.705 388.743 339.904C388.727 338.699 388.713 337.499 388.699 336.299Z" fill="#004F67"/>
<path fill-rule="evenodd" clip-rule="evenodd" d="M411.955 317.577C411.884 318.861 411.813 320.144 411.742 321.424C411.813 320.14 411.884 318.859 411.955 317.577Z" fill="#004F67"/>
<path fill-rule="evenodd" clip-rule="evenodd" d="M396.644 322.599C396.583 321.483 396.521 320.366 396.461 319.252C396.522 320.369 396.583 321.484 396.644 322.599Z" fill="#004F67"/>
<path fill-rule="evenodd" clip-rule="evenodd" d="M430.086 332.448C430.026 333.442 429.966 334.437 429.905 335.428C429.966 334.433 430.026 333.44 430.086 332.448Z" fill="#004F67"/>
<path fill-rule="evenodd" clip-rule="evenodd" d="M228.018 357.567C226.923 358.118 225.829 358.173 224.737 357.56C225.832 357.562 226.925 357.564 228.018 357.567Z" fill="#004F67"/>
<path fill-rule="evenodd" clip-rule="evenodd" d="M340.074 57.1179C340.089 58.101 340.105 59.084 340.12 60.063C340.104 59.0788 340.089 58.0986 340.074 57.1179Z" fill="#004F67"/>
<path fill-rule="evenodd" clip-rule="evenodd" d="M231.355 83.9397C230.233 84.0247 229.112 84.1091 227.991 84.194C229.112 84.1091 230.234 84.0247 231.355 83.9397Z" fill="#004F67"/>
<path fill-rule="evenodd" clip-rule="evenodd" d="M462.953 87.723C462.947 86.7527 462.941 85.7825 462.937 84.814C463.451 85.7825 463.461 86.7516 462.953 87.723Z" fill="#004F67"/>
<path fill-rule="evenodd" clip-rule="evenodd" d="M197.752 89.4902C197.701 88.4594 197.649 87.4292 197.599 86.4001C197.65 87.4315 197.701 88.4605 197.752 89.4902Z" fill="#004F67"/>
<path fill-rule="evenodd" clip-rule="evenodd" d="M473.257 394.013C474.014 394.018 474.772 394.023 475.522 394.028C474.762 394.023 474.009 394.018 473.257 394.013Z" fill="#004F67"/>
<path fill-rule="evenodd" clip-rule="evenodd" d="M175.21 0.946777C174.214 1.03175 173.219 1.11673 172.223 1.20113C173.219 1.11673 174.214 1.03175 175.21 0.946777Z" fill="#004F67"/>
<path fill-rule="evenodd" clip-rule="evenodd" d="M273.433 381.189C274.075 381.188 274.717 381.187 275.351 381.188C274.707 381.189 274.07 381.189 273.433 381.189Z" fill="#004F67"/>
<path fill-rule="evenodd" clip-rule="evenodd" d="M372.885 111.819C371.911 111.722 370.937 111.624 369.964 111.526C370.938 111.624 371.911 111.722 372.885 111.819Z" fill="#004F67"/>
<path fill-rule="evenodd" clip-rule="evenodd" d="M417.146 379.489C417.205 378.687 417.265 377.884 417.325 377.085C417.265 377.889 417.205 378.689 417.146 379.489Z" fill="#004F67"/>
<path fill-rule="evenodd" clip-rule="evenodd" d="M311.741 101.543C310.783 101.534 309.824 101.526 308.866 101.518C309.829 100.96 310.786 101.12 311.741 101.543Z" fill="#004F67"/>
<path fill-rule="evenodd" clip-rule="evenodd" d="M183.832 1.21497C182.866 1.18413 181.845 1.68758 180.954 0.921631C181.914 1.01941 182.873 1.11719 183.832 1.21497Z" fill="#004F67"/>
<path fill-rule="evenodd" clip-rule="evenodd" d="M157.736 95.9417C156.81 96.0266 155.883 96.1116 154.958 96.196C155.885 96.111 156.81 96.0266 157.736 95.9417Z" fill="#004F67"/>
<path fill-rule="evenodd" clip-rule="evenodd" d="M216.079 356.735C215.104 356.836 214.128 356.938 213.153 357.04C214.129 356.938 215.104 356.836 216.079 356.735Z" fill="#004F67"/>
<path fill-rule="evenodd" clip-rule="evenodd" d="M240.363 83.3522C239.412 83.3726 238.46 83.3929 237.51 83.4133C238.453 83.0356 239.397 82.6794 240.363 83.3522Z" fill="#004F67"/>
<path fill-rule="evenodd" clip-rule="evenodd" d="M396.093 343.576C396.088 342.751 396.082 341.927 396.077 341.104C396.082 341.929 396.088 342.753 396.093 343.576Z" fill="#004F67"/>
<path fill-rule="evenodd" clip-rule="evenodd" d="M506.1 273.639C505.998 274.636 505.895 275.633 505.793 276.63C505.895 275.633 505.998 274.636 506.1 273.639Z" fill="#004F67"/>
<path fill-rule="evenodd" clip-rule="evenodd" d="M382.661 337.896C382.59 337.047 382.52 336.199 382.449 335.353C382.52 336.202 382.591 337.049 382.661 337.896Z" fill="#004F67"/>
<path fill-rule="evenodd" clip-rule="evenodd" d="M62.6643 330.1C62.4903 330.946 61.8734 331.113 60.8135 330.599L62.6643 330.1Z" fill="#004F67"/>
<path fill-rule="evenodd" clip-rule="evenodd" d="M418.175 330.476C418.118 329.739 418.062 329.001 418.006 328.266C418.063 329.004 418.118 329.74 418.175 330.476Z" fill="#004F67"/>
<path fill-rule="evenodd" clip-rule="evenodd" d="M218.851 85.1287C218.05 85.2375 217.25 85.3457 216.449 85.4546C217.25 85.3457 218.05 85.2375 218.851 85.1287Z" fill="#004F67"/>
<path fill-rule="evenodd" clip-rule="evenodd" d="M388.218 324.191C388.217 324.915 388.216 325.639 388.214 326.361C388.216 325.635 388.217 324.913 388.218 324.191Z" fill="#004F67"/>
<path fill-rule="evenodd" clip-rule="evenodd" d="M339.931 64.2629C339.931 64.948 339.932 65.6325 339.932 66.314C339.932 65.6284 339.931 64.9457 339.931 64.2629Z" fill="#004F67"/>
<path fill-rule="evenodd" clip-rule="evenodd" d="M47.9459 224.71C47.8667 225.432 47.7876 226.154 47.709 226.873C47.7881 226.15 47.8667 225.43 47.9459 224.71Z" fill="#004F67"/>
<path fill-rule="evenodd" clip-rule="evenodd" d="M527.502 274.329C527.459 273.649 527.417 272.969 527.374 272.293C527.417 272.974 527.459 273.651 527.502 274.329Z" fill="#004F67"/>
<path fill-rule="evenodd" clip-rule="evenodd" d="M114.045 364.05C113.218 364.037 112.391 364.024 111.563 364.011C112.4 363.437 113.225 363.56 114.045 364.05Z" fill="#004F67"/>
<path fill-rule="evenodd" clip-rule="evenodd" d="M210.359 46.4332C210.345 45.7517 210.332 45.0701 210.318 44.3909C210.743 45.0654 210.879 45.7429 210.359 46.4332Z" fill="#004F67"/>
<path fill-rule="evenodd" clip-rule="evenodd" d="M144.322 37.789C144.38 37.1168 144.438 36.4445 144.495 35.7764C144.437 36.4498 144.38 37.1191 144.322 37.789Z" fill="#004F67"/>
<path fill-rule="evenodd" clip-rule="evenodd" d="M417.687 273.114C417.659 272.373 417.63 271.632 417.603 270.892C417.631 271.634 417.659 272.374 417.687 273.114Z" fill="#004F67"/>
<path fill-rule="evenodd" clip-rule="evenodd" d="M412.363 311.391C412.343 312.09 412.322 312.789 412.301 313.483C412.321 312.783 412.342 312.087 412.363 311.391Z" fill="#004F67"/>
<path fill-rule="evenodd" clip-rule="evenodd" d="M317.167 378.781C317.686 378.78 318.204 378.779 318.716 378.779C318.196 378.781 317.681 378.781 317.167 378.781Z" fill="#004F67"/>
<path fill-rule="evenodd" clip-rule="evenodd" d="M64.9766 379.135C65.494 379.149 66.0108 379.163 66.5219 379.178C66.0027 379.164 65.4893 379.15 64.9766 379.135Z" fill="#004F67"/>
<path fill-rule="evenodd" clip-rule="evenodd" d="M377.806 317.807C372.761 313.909 368.364 308.08 367.34 301.839C369.509 304.29 371.333 307.025 373.502 309.474C374.365 310.447 375.423 311.285 376.25 312.276C378.138 314.536 377.806 314.636 377.806 317.807Z" fill="#004F67"/>
<path fill-rule="evenodd" clip-rule="evenodd" d="M360.084 291.459C357.663 285.882 355.561 279.117 355.983 272.964C357.653 278.55 361.529 285.568 360.084 291.459Z" fill="#004F67"/>
<path fill-rule="evenodd" clip-rule="evenodd" d="M368.207 324.254C368.166 325.873 368.125 327.493 368.086 329.108C368.128 327.487 368.167 325.87 368.207 324.254Z" fill="#004F67"/>
<path fill-rule="evenodd" clip-rule="evenodd" d="M48.0332 368.264C49.6879 368.362 51.3432 368.46 52.9979 368.559C51.3356 368.581 49.6512 368.984 48.0332 368.264Z" fill="#004F67"/>
<path fill-rule="evenodd" clip-rule="evenodd" d="M368.198 318.905C368.204 320.286 368.21 321.667 368.216 323.044C368.21 321.662 368.204 320.284 368.198 318.905Z" fill="#004F67"/>
<path fill-rule="evenodd" clip-rule="evenodd" d="M300.209 158.82C299.277 158.772 298.345 158.723 297.421 158.674C298.355 158.723 299.282 158.772 300.209 158.82Z" fill="#004F67"/>
<path fill-rule="evenodd" clip-rule="evenodd" d="M315.363 124.478C315.359 123.358 315.356 122.237 315.353 121.119C315.355 122.24 315.359 123.359 315.363 124.478Z" fill="#004F67"/>
<path fill-rule="evenodd" clip-rule="evenodd" d="M295.356 152.584C295.314 151.796 294.894 151.399 294.097 151.394C295.697 150.529 296.118 150.926 295.356 152.584Z" fill="#004F67"/>
<path fill-rule="evenodd" clip-rule="evenodd" d="M342.821 214.916C342.884 213.919 342.946 212.922 343.009 211.927C342.946 212.925 342.884 213.921 342.821 214.916Z" fill="#004F67"/>
<path fill-rule="evenodd" clip-rule="evenodd" d="M71.5273 368.968C72.6437 368.891 73.76 368.813 74.8763 368.735C73.7594 368.813 72.6437 368.891 71.5273 368.968Z" fill="#004F67"/>
<path fill-rule="evenodd" clip-rule="evenodd" d="M305.99 233.608L309.312 233.585C308.204 233.593 307.097 233.601 305.99 233.608Z" fill="#004F67"/>
<path fill-rule="evenodd" clip-rule="evenodd" d="M337.697 112.113C336.924 112.119 336.152 112.126 335.387 112.131C336.162 112.125 336.929 112.119 337.697 112.113Z" fill="#004F67"/>
<path fill-rule="evenodd" clip-rule="evenodd" d="M498.726 381.896C499.694 381.891 500.662 381.887 501.63 381.883C500.665 382.492 499.696 382.476 498.726 381.896Z" fill="#004F67"/>
<path fill-rule="evenodd" clip-rule="evenodd" d="M92.1644 247.854C91.5078 247.872 90.8513 247.891 90.2012 247.909C90.86 247.891 91.5119 247.872 92.1644 247.854Z" fill="#004F67"/>
<path fill-rule="evenodd" clip-rule="evenodd" d="M440.896 102.794C441.517 103.394 440.7 104.772 439.96 104.297C440.272 103.796 440.584 103.295 440.896 102.794Z" fill="#004F67"/>
<path fill-rule="evenodd" clip-rule="evenodd" d="M137.354 308.54C137.381 307.692 137.409 306.844 137.436 305.997C137.408 306.846 137.381 307.693 137.354 308.54Z" fill="#004F67"/>
<path fill-rule="evenodd" clip-rule="evenodd" d="M359.324 309.009C359.369 308.124 359.414 307.24 359.457 306.356C359.413 307.241 359.368 308.125 359.324 309.009Z" fill="#004F67"/>
<path fill-rule="evenodd" clip-rule="evenodd" d="M514.231 216.804C514.268 217.69 514.305 218.576 514.341 219.459C514.305 218.572 514.268 217.688 514.231 216.804Z" fill="#004F67"/>
<path fill-rule="evenodd" clip-rule="evenodd" d="M215.105 317.127C216.097 317.212 217.088 317.297 218.08 317.381C217.088 317.297 216.097 317.212 215.105 317.127Z" fill="#004F67"/>
<path fill-rule="evenodd" clip-rule="evenodd" d="M351.104 249.183C351.153 248.303 351.202 247.423 351.25 246.545C351.201 247.425 351.153 248.304 351.104 249.183Z" fill="#004F67"/>
<path fill-rule="evenodd" clip-rule="evenodd" d="M178.799 265.923C179.787 266.014 180.775 266.105 181.764 266.196C180.775 266.105 179.787 266.014 178.799 265.923Z" fill="#004F67"/>
<path fill-rule="evenodd" clip-rule="evenodd" d="M266.252 342.872C265.616 342.872 264.979 342.872 264.35 342.872C264.989 342.872 265.621 342.872 266.252 342.872Z" fill="#004F67"/>
<path fill-rule="evenodd" clip-rule="evenodd" d="M322.392 127.788C322.354 128.61 322.316 129.432 322.279 130.25C322.318 129.427 322.355 128.607 322.392 127.788Z" fill="#004F67"/>
<path fill-rule="evenodd" clip-rule="evenodd" d="M336.492 327.264C337.471 326.569 338.422 327.028 339.377 327.329C338.415 327.308 337.454 327.285 336.492 327.264Z" fill="#004F67"/>
<path fill-rule="evenodd" clip-rule="evenodd" d="M222.117 91.9568C221.473 91.9306 220.83 91.9039 220.193 91.8748C220.839 91.9009 221.478 91.9289 222.117 91.9568Z" fill="#004F67"/>
<path fill-rule="evenodd" clip-rule="evenodd" d="M378.079 342.387C378.021 341.568 377.963 340.75 377.905 339.934C377.963 340.754 378.021 341.57 378.079 342.387Z" fill="#004F67"/>
<path fill-rule="evenodd" clip-rule="evenodd" d="M325.402 249.965C324.871 249.968 324.341 249.972 323.817 249.976C324.35 249.974 324.876 249.969 325.402 249.965Z" fill="#004F67"/>
<path fill-rule="evenodd" clip-rule="evenodd" d="M347.77 279.704C347.77 279.021 347.771 278.338 347.771 277.659C347.771 278.343 347.77 279.024 347.77 279.704Z" fill="#004F67"/>
<path fill-rule="evenodd" clip-rule="evenodd" d="M313.842 329.787C314.636 329.684 315.43 329.581 316.224 329.478C315.429 329.581 314.635 329.684 313.842 329.787Z" fill="#004F67"/>
<path fill-rule="evenodd" clip-rule="evenodd" d="M279.507 230.433C280.367 230.428 281.227 230.422 282.088 230.417C281.23 230.922 280.369 230.827 279.507 230.433Z" fill="#004F67"/>
<path fill-rule="evenodd" clip-rule="evenodd" d="M324.07 146.841C323.573 146.836 323.076 146.831 322.585 146.827C323.084 146.831 323.577 146.836 324.07 146.841Z" fill="#004F67"/>
<path fill-rule="evenodd" clip-rule="evenodd" d="M177.164 273.519C176.651 273.512 176.139 273.505 175.633 273.498C176.148 273.505 176.656 273.512 177.164 273.519Z" fill="#004F67"/>
<path fill-rule="evenodd" clip-rule="evenodd" d="M78.126 239.901C78.9845 239.91 79.8429 239.919 80.7014 239.928C79.8377 240.413 78.9792 240.426 78.126 239.901Z" fill="#004F67"/>
<path fill-rule="evenodd" clip-rule="evenodd" d="M514.315 241.321C514.26 241.976 514.206 242.631 514.154 243.283C514.208 242.626 514.261 241.974 514.315 241.321Z" fill="#004F67"/>
<path fill-rule="evenodd" clip-rule="evenodd" d="M295.756 346.592C295.829 345.876 295.902 345.161 295.975 344.448C295.901 345.165 295.829 345.878 295.756 346.592Z" fill="#004F67"/>
<path fill-rule="evenodd" clip-rule="evenodd" d="M156.941 261.371C157.809 261.384 158.676 261.396 159.544 261.409C158.668 262.012 157.805 261.632 156.941 261.371Z" fill="#004F67"/>
<path fill-rule="evenodd" clip-rule="evenodd" d="M354.716 135.806C355.56 135.71 356.403 135.615 357.247 135.52C356.403 135.615 355.56 135.71 354.716 135.806Z" fill="#004F67"/>
<path fill-rule="evenodd" clip-rule="evenodd" d="M284.206 365.037C284.282 365.789 284.359 366.54 284.434 367.289C284.358 366.537 284.282 365.788 284.206 365.037Z" fill="#004F67"/>
<path fill-rule="evenodd" clip-rule="evenodd" d="M359.338 315.619C359.337 314.918 359.336 314.217 359.335 313.52C359.336 314.222 359.337 314.92 359.338 315.619Z" fill="#004F67"/>
<path fill-rule="evenodd" clip-rule="evenodd" d="M53.4082 368.658C54.2248 368.766 55.0414 368.873 55.8574 368.981C55.0408 368.873 54.2242 368.766 53.4082 368.658Z" fill="#004F67"/>
<path fill-rule="evenodd" clip-rule="evenodd" d="M68.7275 368.989C69.5337 368.33 70.352 368.532 71.1732 368.954C70.3578 368.965 69.5424 368.977 68.7275 368.989Z" fill="#004F67"/>
<path fill-rule="evenodd" clip-rule="evenodd" d="M216.033 272.419C216.832 272.321 217.63 272.224 218.428 272.126C217.629 272.224 216.831 272.321 216.033 272.419Z" fill="#004F67"/>
<path fill-rule="evenodd" clip-rule="evenodd" d="M304.761 372.7C305.574 372.591 306.388 372.482 307.202 372.374C306.388 372.482 305.574 372.591 304.761 372.7Z" fill="#004F67"/>
<path fill-rule="evenodd" clip-rule="evenodd" d="M276.3 373.964C277.13 373.858 277.959 373.751 278.789 373.645C277.959 373.751 277.13 373.858 276.3 373.964Z" fill="#004F67"/>
<path fill-rule="evenodd" clip-rule="evenodd" d="M321.988 132.759C321.951 133.428 321.914 134.099 321.879 134.765C321.916 134.093 321.952 133.426 321.988 132.759Z" fill="#004F67"/>
<path fill-rule="evenodd" clip-rule="evenodd" d="M126.539 292.508C126.613 291.797 126.687 291.085 126.761 290.376C126.686 291.089 126.613 291.799 126.539 292.508Z" fill="#004F67"/>
<path fill-rule="evenodd" clip-rule="evenodd" d="M315.58 115.429C315.602 114.732 315.623 114.034 315.645 113.339C315.624 114.038 315.602 114.734 315.58 115.429Z" fill="#004F67"/>
<path fill-rule="evenodd" clip-rule="evenodd" d="M157.088 284.597C157.161 285.309 157.235 286.022 157.307 286.731C157.234 286.017 157.161 285.307 157.088 284.597Z" fill="#004F67"/>
<path fill-rule="evenodd" clip-rule="evenodd" d="M159.838 261.378C160.68 261.472 161.521 261.564 162.362 261.657C161.521 261.564 160.679 261.472 159.838 261.378Z" fill="#004F67"/>
<path fill-rule="evenodd" clip-rule="evenodd" d="M293.817 365.229C294.296 366.635 294.12 369.908 292.759 370.899C289.936 372.957 289.645 369.199 289.085 367.169C287.53 361.538 285.027 355.25 284.389 349.46C284.193 347.685 284.087 344.358 286.436 343.759C288.704 343.182 289.852 346.774 290.635 348.619C292.804 353.739 294.062 359.678 293.817 365.229Z" fill="#004F67"/>
<path fill-rule="evenodd" clip-rule="evenodd" d="M293.816 365.229C293.848 364.501 293.881 363.774 293.913 363.05C293.88 363.778 293.848 364.503 293.816 365.229Z" fill="#004F67"/>
</svg>
