<svg width="78" height="75" viewBox="0 0 78 75" fill="none" xmlns="http://www.w3.org/2000/svg">
<ellipse cx="18.9521" cy="58.5" rx="15" ry="14.5" fill="#F7CC31"/>
<path d="M17.4518 27.9999C17.2852 22.4999 20.2518 9.89992 33.4518 3.49992C49.9518 -4.50008 61.9519 6.49992 63.4519 7.99992C64.9519 9.49992 71.4519 16 72.9519 24.5C73.3496 26.7535 73.6118 28.154 73.7786 28.9709C73.8385 28.9818 73.8963 28.9915 73.9519 29C74.0633 29.8915 74.1152 30.619 73.7786 28.9709C71.5019 28.5583 66.1288 26.4564 61.4519 21C56.6519 15.4 54.1186 13.6667 53.4519 13.5C51.6186 15.3334 45.8519 19.9001 37.4519 23.5C29.0519 27.0999 20.6185 27.9999 17.4518 27.9999Z" fill="#CAE4DB"/>
<path d="M64.9519 47C62.9519 49.8 59.1186 52.5 57.4519 53.5L63.4519 60.5C63.9519 60.3333 65.7519 59.7 68.9519 58.5C72.1519 57.3 72.9519 52 72.9519 49.5V40H68.9519C68.4519 41.1667 66.9519 44.2 64.9519 47Z" fill="#CAE4DB"/>
<rect x="16.9521" y="40" width="5" height="3" fill="#CAE4DB"/>
<ellipse cx="26.375" cy="53.4845" rx="6.5" ry="9.5" transform="rotate(-30.5074 26.375 53.4845)" fill="white"/>
<path d="M4.65313 42.5L11.4521 45L4.65317 52.0745L3.45215 47.5L4.65313 42.5Z" fill="#F7CC31"/>
<path d="M27.4521 2.5L32.9521 8L29.4521 11.5L24.4521 16L18.9521 22.5L12.9521 16L20.9521 11.5L24.4521 6.5L27.4521 2.5Z" fill="white"/>
<path d="M46.9421 71.6022C41.0651 71.6022 35.1619 71.6022 29.2849 71.6022C28.6814 71.6022 28.1567 71.7596 27.632 72.0744C17.8457 78.3187 4.59626 72.1269 3.0483 60.6353C2.7597 58.4314 2.89088 56.2538 3.49432 54.1024C3.62551 53.6826 3.57303 53.3153 3.36314 52.9217C1.65776 49.8258 1.63153 46.5725 2.57604 43.2666C2.99583 41.7974 4.30766 41.089 5.82938 41.2989C7.8496 41.5613 9.65992 42.2959 11.2866 43.4765C11.7326 43.8176 12.0999 43.8438 12.6247 43.5815C13.5429 43.1355 14.5137 42.7944 15.5369 42.6107C16.1141 42.5058 16.3503 42.2434 16.2453 41.6662C16.2191 41.535 16.2191 41.4301 16.2453 41.2989C16.3765 40.2494 16.0354 39.4623 15.2746 38.649C12.887 36.1041 12.9395 32.0111 15.327 29.44C15.7468 28.9939 15.9305 28.5217 15.9567 27.9445C16.0354 26.344 16.3503 24.7436 16.7176 23.1694C16.8487 22.6184 16.77 22.2774 16.3503 21.8838C15.5632 21.1754 14.8023 20.3883 14.0677 19.6275C13.8053 19.3389 13.5429 19.0503 13.3068 18.7354C11.89 16.7939 12.2311 14.8524 14.2251 13.5144C15.3795 12.7273 16.6913 12.3075 18.0294 12.0189C18.5541 11.9139 18.8427 11.6778 19.0526 11.1531C19.6298 9.68381 20.6793 8.60811 22.1748 8.05714C22.6733 7.87349 22.8832 7.61112 22.9619 7.13886C23.1718 6.14187 23.4866 5.17112 23.9326 4.2266C24.195 3.67563 24.5098 3.1509 24.9296 2.70488C26.084 1.41929 27.5008 1.15692 29.0225 1.91778C29.6784 2.25886 30.2556 2.70488 30.7541 3.25585C31.0952 3.6494 31.3838 3.6494 31.8298 3.41327C34.7421 1.7866 37.9167 0.737135 41.2488 0.291113C48.7524 -0.732114 55.6002 0.947027 61.8183 5.24983C62.8153 5.93198 63.7335 6.69284 64.6256 7.47994C65.0454 7.84725 65.229 8.31951 64.9929 8.87048C64.783 9.34274 64.4157 9.6051 63.9172 9.6051C63.4187 9.6051 63.0776 9.26403 62.7103 8.94919C61.2935 7.68983 59.7718 6.61413 58.1189 5.69585C54.5507 3.72811 50.7464 2.62617 46.6797 2.39004C42.1146 2.15391 37.8118 3.07219 33.6926 5.03994C33.063 5.32854 33.0105 5.56467 33.404 6.14187C34.7946 8.16209 34.401 9.99865 32.3546 11.363C31.2002 12.1238 29.8883 12.5174 28.5503 12.8322C28.078 12.9371 27.8419 13.1733 27.6582 13.6455C27.081 15.141 26.0316 16.1905 24.5361 16.7415C24.0638 16.9251 23.8539 17.1612 23.7227 17.6597C23.4341 18.8666 23.0668 20.0735 22.4371 21.1492C21.7812 22.2774 20.9417 23.1432 19.5511 23.2744C19.1838 23.3268 19.0001 23.5367 18.9214 23.8778C18.7378 24.8748 18.5541 25.898 18.3705 26.895C18.2918 27.2886 18.4754 27.341 18.8165 27.2886C23.8802 26.5539 28.7864 25.1896 33.6139 23.4843C33.955 23.3531 34.2961 23.2219 34.6372 23.1169C35.4243 22.8546 36.0539 23.0907 36.2901 23.7204C36.5524 24.4025 36.2376 25.006 35.4243 25.3208C33.4303 26.0817 31.4101 26.7376 29.3898 27.341C27.0285 28.0232 24.641 28.6266 22.201 29.0989C21.755 29.1776 21.5189 29.3613 21.5189 29.8597C21.3877 34.3462 22.2797 38.5965 24.2999 42.6107C24.6935 43.3978 25.4543 43.5028 26.1365 43.7914C26.3726 43.8963 26.5825 43.634 26.7662 43.5028C28.4191 42.3221 30.2294 41.535 32.2759 41.2989C33.8501 41.089 35.1357 41.8761 35.5817 43.4241C36.4737 46.5725 36.3688 49.6421 34.8995 52.6331C34.6634 53.1316 34.7421 53.3153 35.2144 53.5514C43.164 57.5918 53.475 56.28 60.1916 50.3768C65.1765 45.9952 68.0363 40.4856 68.8759 33.9264C69.0333 32.6146 69.0858 31.3028 69.0596 29.9909C69.0333 29.2825 68.8234 28.784 68.22 28.3118C64.3632 25.3471 60.6901 22.1724 57.2269 18.7617C56.1512 17.686 55.1279 16.584 54.2096 15.3772C53.8948 14.9574 53.6849 14.9574 53.2914 15.2984C49.3821 18.6043 45.0268 21.1754 40.383 23.3006C40.0157 23.4843 39.6221 23.6417 39.2023 23.458C38.7563 23.2481 38.4939 22.9333 38.4677 22.4348C38.4415 21.8838 38.7038 21.5165 39.1761 21.2541C40.4092 20.6507 41.6423 20.0473 42.8492 19.4176C46.26 17.6335 49.4608 15.5346 52.3469 12.9896C53.5275 11.9402 54.577 11.9926 55.5477 13.2258C59.6931 18.5255 64.9667 22.6184 70.1615 26.8163C70.7125 27.2623 71.3946 27.2099 72.0243 27.341C72.3916 27.4197 72.208 27.0262 72.1817 26.8425C71.8406 23.8778 71.0011 21.0705 69.7417 18.3681C68.8234 16.3741 67.669 14.4851 66.3047 12.7535C66.1735 12.5961 66.0686 12.4387 65.9636 12.2812C65.6226 11.6778 65.7013 11.1006 66.1998 10.707C66.7245 10.3135 67.3804 10.3397 67.8264 10.8907C68.6398 11.8614 69.3744 12.8847 70.0566 13.9866C72.7852 18.3944 74.3593 23.1957 74.7267 28.3905C74.7529 28.7316 74.8841 28.9677 75.094 29.2301C77.875 32.2735 77.7701 36.3927 74.8054 39.2524C74.4643 39.5935 74.3856 39.9346 74.3856 40.3544C74.3856 43.5028 74.3331 46.6512 73.9658 49.7733C73.6247 52.6069 72.9951 55.3617 71.2634 57.723C69.7942 59.717 67.774 60.8189 65.3864 61.2387C64.7305 61.3437 64.678 61.5535 64.9142 62.1308C65.9112 64.597 66.4097 67.1682 66.4884 69.8443C66.5146 71.1824 66.0948 71.5759 64.7568 71.5759C58.8535 71.6022 52.8978 71.6022 46.9421 71.6022ZM19.0001 72.1531C26.3202 72.3368 32.8531 66.2499 32.8531 58.3789C32.8531 50.7178 26.7137 44.6834 19.0264 44.6572C11.549 44.6309 5.33089 50.7965 5.30465 58.274C5.25218 65.9613 11.3128 72.1269 19.0001 72.1531ZM31.0952 69.1884C31.5412 69.1884 31.8036 69.1884 32.066 69.1884C41.7735 69.1884 51.4548 69.1884 61.1623 69.1884C61.897 69.1884 62.6316 69.1622 63.3662 69.1884C64.0746 69.2409 64.2058 68.8998 64.1008 68.2963C63.9959 67.7716 63.9434 67.2469 63.8385 66.6959C63.0251 62.3931 60.9787 58.7462 57.9352 55.6241C57.5679 55.2568 57.2531 55.1781 56.7808 55.4404C55.9937 55.8602 55.1804 56.2013 54.3671 56.5161C53.8686 56.6998 53.6062 56.9884 53.4226 57.5131C52.2944 61.0551 49.0935 63.4688 45.4991 63.5213C41.721 63.5738 38.389 61.1862 37.2083 57.5131C37.1034 57.2245 37.1034 56.8572 36.7361 56.726C36.2114 56.5161 35.7129 56.3325 35.0832 56.0963C35.6341 61.0288 34.4273 65.3316 31.0952 69.1884ZM72.0505 43.2142C72.0505 43.0305 72.0505 42.8206 72.0505 42.637C71.9981 42.086 72.2867 41.3776 71.9194 41.0103C71.6045 40.6955 70.9486 41.1152 70.4501 41.1152C70.4239 41.1152 70.3976 41.1152 70.3714 41.1152C69.7417 41.0103 69.4793 41.3251 69.2432 41.8761C67.2492 46.5987 64.2058 50.5079 60.0342 53.4989C59.6144 53.8138 59.5619 53.9974 59.9555 54.391C61.2148 55.6241 62.2905 57.0146 63.1826 58.5363C63.4712 59.0086 63.8122 59.1398 64.337 59.0873C66.9082 58.7987 68.9021 57.6181 70.1353 55.283C70.6075 54.3647 70.9486 53.394 71.1847 52.397C71.9193 49.3798 71.9456 46.2839 72.0505 43.2142ZM27.4483 3.91176C27.0023 3.88553 26.7137 4.17413 26.5038 4.48897C25.7692 5.53843 25.4543 6.74531 25.1657 7.9522C25.1133 8.21456 25.2445 8.34575 25.4281 8.50316C26.1365 9.0279 26.7662 9.63134 27.2647 10.366C27.4483 10.6283 27.632 10.6283 27.8944 10.5759C28.9963 10.3135 30.072 10.0249 31.0427 9.42145C31.9873 8.818 32.1184 8.31951 31.4363 7.4537C30.4918 6.27305 29.4161 5.19735 28.2354 4.25284C27.9993 4.04294 27.7369 3.91176 27.4483 3.91176ZM21.4664 17.0563C21.5189 16.6103 21.3877 16.4529 21.204 16.3217C20.5219 15.7969 19.9184 15.1935 19.4199 14.5113C19.2887 14.3539 19.1838 14.1703 18.9477 14.2227C17.6096 14.5376 16.2715 14.8262 15.1958 15.7445C14.7498 16.1118 14.6973 16.6103 15.0122 17.0563C16.0092 18.4731 17.2423 19.68 18.6328 20.7032C19.1313 21.0705 19.6561 20.9655 20.0496 20.4933C20.8892 19.4438 21.1778 18.132 21.4664 17.0563ZM19.1576 31.3028C19.1576 31.0142 19.1576 30.8305 19.1576 30.6731C19.1313 30.3845 19.2887 30.0172 19.0264 29.8597C18.7115 29.6761 18.4229 29.9647 18.1606 30.1221C16.5339 31.0666 15.5894 32.9557 15.878 34.6873C16.1928 36.6813 17.5309 38.1505 19.4462 38.6228C20.207 38.8064 20.2857 38.754 20.0758 37.9931C19.4986 35.7367 19.2625 33.4804 19.1576 31.3028ZM74.8054 34.1363C74.7791 32.2473 73.5985 30.4894 71.9981 29.8597C71.7095 29.7548 71.4733 29.6236 71.4996 30.1221C71.5258 32.877 71.2372 35.5793 70.5288 38.2292C70.4239 38.649 70.5813 38.754 70.9748 38.7015C72.995 38.4129 74.8578 36.2352 74.8054 34.1363ZM44.5808 61.16C47.4668 61.16 49.4346 60.0843 50.5103 58.3527C50.6152 58.1953 50.7989 58.0116 50.6939 57.828C50.5628 57.6181 50.3266 57.7755 50.143 57.828C46.9421 58.4576 43.7413 58.4576 40.5404 57.828C40.3567 57.8017 40.1206 57.6181 39.9894 57.828C39.8582 58.0378 40.0681 58.2477 40.1731 58.4052C41.4324 60.1892 43.1378 61.1075 44.5808 61.16ZM33.1941 50.5079C33.2991 50.3505 33.3516 50.3243 33.3778 50.2456C34.0075 48.1991 33.9288 46.1789 33.3778 44.1325C33.2729 43.7127 32.9842 43.5815 32.6169 43.634C31.2789 43.8176 30.0195 44.2636 28.8651 44.972C28.5503 45.1819 28.6027 45.3131 28.8651 45.4968C30.5967 46.8611 32.0397 48.514 33.1941 50.5079ZM4.85863 50.4817C4.96357 50.3768 5.04228 50.3505 5.06852 50.2981C6.14422 48.4353 7.53476 46.8611 9.24014 45.5492C9.68616 45.2082 9.45003 45.0507 9.13519 44.8671C8.08573 44.2374 6.93132 43.8176 5.72443 43.634C5.12099 43.529 4.83239 43.7389 4.67497 44.3423C4.46508 45.2869 4.30766 46.2576 4.30766 47.2284C4.30766 48.3303 4.41261 49.406 4.85863 50.4817ZM23.3554 14.5638C24.3524 14.5638 25.4806 13.4094 25.4806 12.4124C25.4806 11.4679 24.2475 10.2348 23.3292 10.2348C22.4109 10.2348 21.1515 11.4679 21.1515 12.3862C21.1253 13.3045 22.4109 14.5638 23.3554 14.5638ZM18.6328 41.5613C18.5279 42.0598 18.7903 42.2172 19.2887 42.2172C19.761 42.2172 20.207 42.2434 20.6793 42.2697C20.9417 42.2959 21.3614 42.5058 21.4664 42.2172C21.5713 41.9023 21.3352 41.5088 21.0728 41.2464C20.9941 41.1677 20.8105 41.1415 20.6793 41.1152C20.207 41.0628 19.7085 41.0628 19.2363 40.9578C18.6853 40.8529 18.5804 41.089 18.6328 41.5613Z" fill="#004F67"/>
<path d="M45.3415 38.6226C44.2133 38.5439 43.2163 38.2028 42.3767 37.4157C41.7733 36.8385 41.7208 36.1826 42.1668 35.6579C42.6391 35.1332 43.2425 35.1332 43.9247 35.6317C44.9741 36.445 45.6563 36.445 46.732 35.6054C47.3879 35.1069 48.0176 35.1332 48.4636 35.6841C48.8834 36.1826 48.8309 36.8123 48.28 37.3895C47.4929 38.2028 46.4696 38.5439 45.3415 38.6226Z" fill="#004F67"/>
<path d="M32.643 36.3664C33.1677 36.3664 33.7187 36.3402 34.2434 36.3664C34.9518 36.4189 35.4241 36.8649 35.4765 37.4946C35.5028 38.098 35.0567 38.6752 34.3484 38.7015C33.194 38.7539 32.0133 38.7539 30.8327 38.7015C30.1767 38.6752 29.7307 38.098 29.757 37.5208C29.7832 36.9174 30.2555 36.4189 30.9638 36.3664C31.0163 36.3664 31.0688 36.3664 31.1213 36.3664C31.6198 36.3664 32.1183 36.3664 32.643 36.3664Z" fill="#004F67"/>
<path d="M58.0668 38.754C57.5683 38.754 57.0436 38.7803 56.5451 38.754C55.7055 38.7015 55.1808 38.203 55.207 37.5209C55.2332 36.8387 55.7317 36.3927 56.5451 36.3927C57.5421 36.3665 58.539 36.3665 59.536 36.3927C60.3494 36.419 60.8479 36.865 60.8479 37.5471C60.8479 38.2555 60.4018 38.7278 59.5885 38.754C59.09 38.7803 58.5653 38.754 58.0668 38.754Z" fill="#004F67"/>
<path d="M59.2206 32.7457C59.2206 33.1392 59.2468 33.5328 59.2206 33.9001C59.1681 34.556 58.8008 34.9758 58.1186 35.0807C57.5414 35.1594 56.9904 34.7396 56.8855 34.0837C56.7543 33.1392 56.7543 32.1947 56.8855 31.2502C56.9642 30.673 57.384 30.3057 58.0137 30.3057C58.6696 30.3057 59.0894 30.673 59.1681 31.3027C59.2468 31.7749 59.1943 32.2734 59.2206 32.7457C59.2206 32.7457 59.1943 32.7457 59.2206 32.7457Z" fill="#004F67"/>
<path d="M31.4628 32.6934C31.4628 32.2474 31.4366 31.8013 31.4628 31.3816C31.5153 30.7256 31.9089 30.3321 32.5648 30.3059C33.1944 30.2796 33.6405 30.6207 33.7454 31.2504C33.9028 32.1686 33.9028 33.1132 33.7717 34.0314C33.6667 34.6874 33.142 35.1071 32.5648 35.1071C31.9351 35.0809 31.4891 34.5824 31.4628 33.874C31.4366 33.4805 31.4628 33.0869 31.4628 32.6934Z" fill="#004F67"/>
<path d="M20.3386 59.8745C19.6564 59.4547 18.607 59.4547 17.7937 59.8483C17.059 60.1894 16.2719 59.5597 15.6947 58.9562C15.2225 58.4577 15.1962 57.8281 15.5635 57.3558C15.9571 56.8573 16.5605 56.7524 17.1377 57.1459C17.61 57.487 17.9773 57.5395 18.4496 57.1459C18.8956 56.7786 19.4203 56.8311 19.8663 57.1984C20.2861 57.5132 20.6272 57.5132 21.047 57.1984C21.6504 56.7524 22.2539 56.8573 22.6737 57.382C23.0672 57.8805 23.0147 58.5102 22.49 59.0349C21.939 59.5859 21.0995 60.3468 20.3386 59.8745Z" fill="#004F67"/>
<path d="M12.3365 56.516C12.3365 56.6735 12.3365 56.8046 12.3365 56.9621C12.3103 57.8279 11.8643 58.3526 11.1821 58.3788C10.5524 58.4051 10.0277 57.8803 9.97524 57.067C9.949 56.5947 9.949 56.1225 10.0015 55.6765C10.1064 54.9681 10.6574 54.5221 11.2608 54.6008C11.8905 54.6532 12.3103 55.1255 12.3365 55.8601C12.3365 56.07 12.3365 56.2799 12.3365 56.516Z" fill="#004F67"/>
<path d="M25.874 56.4899C25.9003 56.1488 25.9265 55.8077 26.0052 55.4666C26.1364 54.9157 26.5562 54.6008 27.1334 54.6008C27.6581 54.6008 28.0779 54.8894 28.2091 55.4142C28.3927 56.0963 28.3927 56.8309 28.2091 57.5131C28.0779 58.0378 27.6581 58.3527 27.1334 58.3527C26.6086 58.3789 26.2151 58.0641 26.0052 57.5656C25.874 57.2245 25.9003 56.8572 25.874 56.4899Z" fill="#004F67"/>
</svg>
