<svg width="478" height="419" viewBox="0 0 478 419" fill="none" xmlns="http://www.w3.org/2000/svg">
<path d="M95.5611 0H387.67C392.089 0 396.324 1.75305 399.449 4.87351C402.57 7.99396 404.324 12.2261 404.324 16.6392V35.0106H78.9072V16.6392C78.9072 12.2261 80.6622 7.99396 83.785 4.87351C86.9083 1.75305 91.1446 0 95.5611 0Z" fill="#004F67" fill-opacity="0.81"/>
<path d="M78.9072 35.0107H404.324V329.724C404.324 333.719 403.539 337.674 402.008 341.365C400.477 345.056 398.238 348.409 395.408 351.233C392.584 354.058 389.226 356.299 385.534 357.827C381.837 359.356 377.878 360.143 373.881 360.143H109.352C105.355 360.143 101.395 359.356 97.7018 357.827C94.0077 356.299 90.6514 354.058 87.8246 351.233C84.9973 348.409 82.7549 345.056 81.2248 341.365C79.6951 337.674 78.9072 333.719 78.9072 329.724V35.0107Z" fill="url(#paint0_linear_311_525)"/>
<path d="M291.527 244.068H202.27V287.378H291.527V244.068Z" fill="#FFCCB3"/>
<path d="M201.745 270.769C191.277 281.059 187.158 331.739 187.71 360.143H312.317C312.317 360.143 312.093 298.203 302.646 277.33C293.959 258.135 279.518 286.45 201.745 270.769Z" fill="#004F67"/>
<path d="M276.529 46.9652C276.529 46.9652 286.868 35.1825 306.937 33.4683C327.005 31.7541 333.01 49.316 332.153 60.1058C331.295 70.8956 315.567 93.1805 318.713 102.609C321.858 112.037 307.067 107.466 305.455 88.6091C303.843 69.7526 297.838 43.468 281.538 52.896L276.529 46.9652Z" fill="#004F67"/>
<path d="M279.668 41.45C279.668 41.45 282.141 40.0185 283.931 43.3579C285.722 46.6973 289.066 53.4781 284.827 55.2756C280.589 57.0736 279.668 41.45 279.668 41.45Z" fill="#7A9D96"/>
<path d="M222.341 150.045C222.341 150.045 238.373 168.023 233.041 173.79C222.481 185.642 194.394 207.917 185.191 215.29C184.794 215.594 184.34 215.817 183.856 215.944C183.373 216.073 182.868 216.104 182.373 216.036C181.877 215.968 181.399 215.803 180.968 215.55C180.536 215.297 180.159 214.961 179.858 214.562L158.096 185.976C157.245 184.875 156.848 183.491 156.987 182.107C157.126 180.723 157.79 179.445 158.842 178.535L200.995 142.218L222.341 150.045Z" fill="#7A9D96"/>
<path d="M197.031 172.901C197.031 172.901 177.051 184.765 175.251 208.604L179.23 213.711C179.23 213.711 181.728 218.061 185.191 215.29C188.653 212.519 204.669 199.702 204.669 199.702L197.031 172.901Z" fill="#004F67"/>
<path d="M215.712 181.938C228.174 181.938 238.277 171.845 238.277 159.393C238.277 146.942 228.174 136.848 215.712 136.848C203.249 136.848 193.146 146.942 193.146 159.393C193.146 171.845 203.249 181.938 215.712 181.938Z" fill="#7A9D96"/>
<path d="M156.952 230.064L137.232 203.977L155.901 189.497L158.827 187.143L179.282 213.87L175.72 216.43L156.952 230.064Z" fill="#FFCCB3"/>
<path d="M175.72 216.43C170.437 209.364 160.504 195.553 155.9 189.497L158.826 187.143L179.23 213.711L175.72 216.43Z" fill="#FF967C"/>
<path d="M146.793 233.683C155.84 233.683 163.174 226.356 163.174 217.317C163.174 208.278 155.84 200.95 146.793 200.95C137.746 200.95 130.412 208.278 130.412 217.317C130.412 226.356 137.746 233.683 146.793 233.683Z" fill="#FFCCB3"/>
<path d="M160.663 208.513C160.663 208.513 107.821 130.98 105.379 124.396C103.002 117.965 90.5205 133.439 90.5205 133.439L131.417 222.587L160.663 208.513Z" fill="#FFCCB3"/>
<path d="M233.41 100.39L227.057 144.639C227.057 144.639 225.39 150.513 232.79 151.401C240.191 152.291 255.971 150.304 261.607 144.303C267.243 138.303 265.272 135.33 265.272 135.33L253.319 87.3018L233.41 100.39Z" fill="#FFCCB3"/>
<path d="M232.525 106.116L248.064 100.633L228.813 129.139L232.525 106.116Z" fill="#FF967C"/>
<path d="M215.83 45.7334C215.83 45.7334 202.499 77.0285 209.446 98.4773C213.977 112.466 223.844 114.981 246.442 104.498C267.162 94.8862 272.544 87.6154 272.544 87.6154L275.599 52.7292C275.599 52.7292 229.368 17.8396 215.83 45.7334Z" fill="#FFCCB3"/>
<path d="M226.945 131.917C226.945 131.917 209.868 136.658 206.403 139.428C202.937 142.198 200.416 164.713 195.294 175.834C187.711 192.299 182.802 201.058 195.541 219.151C203.224 230.065 200.612 257.808 200.612 257.808H294.159C291.324 203.256 303.866 138.947 303.866 138.947L261.647 129.228C252.128 130.867 226.945 131.917 226.945 131.917Z" fill="#7A9D96"/>
<path d="M223.959 132.797C223.959 132.797 225.221 124.222 229.257 123.618C233.293 123.015 257.954 119.308 261.79 120.922C265.626 122.536 270.27 132.797 270.27 132.797C270.27 132.797 262.396 151.985 251.09 152.993C239.785 154.002 220.326 150.52 222.383 143.386C224.441 136.252 223.959 132.797 223.959 132.797Z" fill="#7A9D96"/>
<path d="M216.278 135.404C216.278 135.404 219.006 151.953 233.822 151.693C248.637 151.431 270.167 129.228 270.167 129.228" stroke="white" stroke-width="1.35709" stroke-miterlimit="10"/>
<path d="M283.404 159.393C283.404 159.393 268.682 169.117 273.019 178.93C277.895 189.963 277.853 218.379 263.858 220.16C238.888 223.337 249.737 227.7 261.282 230.488C272.828 233.276 268.101 233.278 268.101 245.229C268.101 253.734 294.854 261.109 294.159 254.236C289.507 208.256 308.843 179.142 283.404 159.393Z" fill="#004F67"/>
<path d="M214.641 91.7773L227.041 92.3902C226.997 92.5427 226.93 92.7514 226.832 92.9968C226.622 93.5293 226.272 94.2308 225.717 94.91C224.617 96.2568 222.695 97.5368 219.375 97.2013C217.279 96.8 216.087 95.3917 215.412 94.0585C215.074 93.3909 214.869 92.7465 214.749 92.2692C214.7 92.0731 214.664 91.9061 214.641 91.7773Z" fill="#E56441" stroke="#E56441"/>
<path d="M215.46 71.2041C215.978 69.2846 215.341 67.444 214.037 67.0926C212.734 66.7411 211.257 68.0124 210.739 69.9319C210.221 71.8513 210.858 73.6919 212.161 74.0434C213.464 74.3944 214.941 73.1236 215.46 71.2041Z" fill="#004F67"/>
<path d="M234.643 76.6703C235.161 74.7508 234.525 72.9102 233.221 72.5588C231.918 72.2078 230.441 73.4786 229.922 75.398C229.404 77.3175 230.041 79.1581 231.344 79.5096C232.648 79.861 234.125 78.5898 234.643 76.6703Z" fill="#004F67"/>
<path d="M210.609 61.2898L220.361 64.0908C220.53 64.1247 220.707 64.0957 220.857 64.0095C221.007 63.9233 221.12 63.7858 221.177 63.6222C221.222 63.3148 221.203 63.0016 221.124 62.7014C221.044 62.4008 220.904 62.12 220.712 61.8755C220.521 61.6306 220.281 61.4273 220.009 61.2777C219.737 61.1281 219.437 61.0347 219.127 61.0042L210.751 60.1236C210.108 59.9503 209.805 61.0734 210.609 61.2898Z" fill="#004F67"/>
<path d="M243.95 69.6187L230.725 66.9149C230.844 66.5219 231.045 66.1578 231.314 65.847C231.583 65.5357 231.914 65.2845 232.286 65.1092C232.657 64.934 233.062 64.8381 233.473 64.8285C233.885 64.8188 234.293 64.8953 234.673 65.0531L244.327 68.8601C244.648 68.9463 244.431 69.7489 243.95 69.6187Z" fill="#004F67"/>
<path d="M221.357 71.7534L215.084 80.1933L217.446 83.5303" stroke="#E56441" stroke-width="2.23881" stroke-linecap="round"/>
<path d="M233.023 163.833C234.237 163.833 235.222 161.116 235.222 157.763C235.222 154.41 234.237 151.692 233.023 151.692C231.808 151.692 230.823 154.41 230.823 157.763C230.823 161.116 231.808 163.833 233.023 163.833Z" fill="white"/>
<path d="M334.392 247.358L301.781 250.028L296.213 226.415L289.507 208.257L323.827 204.153L328.117 224.475L334.392 247.358Z" fill="#FFCCB3"/>
<path d="M324.986 209.641L326.189 215.339L292.391 216.066L290.168 210.046L324.986 209.641Z" fill="#FF967C"/>
<path d="M298.256 183.33C310.718 183.33 320.82 173.236 320.82 160.785C320.82 148.333 310.718 138.239 298.256 138.239C285.793 138.239 275.69 148.333 275.69 160.785C275.69 173.236 285.793 183.33 298.256 183.33Z" fill="#7A9D96"/>
<path d="M293.903 150.185C293.903 150.185 317.685 146.285 319.704 153.872C324.067 169.13 329.43 193.623 330.735 205.337C330.779 205.835 330.724 206.337 330.573 206.813C330.422 207.29 330.178 207.732 329.855 208.114C329.533 208.496 329.137 208.811 328.692 209.039C328.248 209.268 327.762 209.406 327.263 209.446L291.446 212.501C290.06 212.629 288.678 212.223 287.582 211.365C286.487 210.507 285.762 209.262 285.556 207.887L275.856 164.005L293.903 150.185Z" fill="#7A9D96"/>
<path d="M224.14 42.7585C224.14 42.7585 224.984 57.9594 237.872 65.3256C237.872 65.3256 241.642 76.9843 255.708 79.7263C255.708 79.7263 254.877 69.0106 261.582 69.1239C272.966 69.3166 267.366 86.5706 259.67 89.4012C254.439 91.325 251.288 98.1529 259.053 113.714C276.882 107.36 289.421 81.7005 284.505 53.2326C280.569 30.435 252.281 22.9904 246.469 23.7331C246.469 23.7331 222.332 15.4021 209.624 38.2505C198.759 57.7822 208.905 69.4391 208.905 69.4391L214.696 52.0557C214.696 52.0557 217.114 53.7525 224.14 42.7585Z" fill="#004F67"/>
<path d="M334.512 303.688H248.136C246.466 303.688 244.853 303.078 243.6 301.974C242.347 300.869 241.541 299.346 241.333 297.689L233.361 234.117C233.24 233.153 233.326 232.174 233.612 231.246C233.899 230.317 234.38 229.461 235.023 228.732C235.667 228.004 236.458 227.421 237.344 227.021C238.231 226.621 239.192 226.415 240.164 226.415H342.485C343.457 226.415 344.418 226.621 345.304 227.021C346.191 227.421 346.982 228.004 347.625 228.732C348.269 229.461 348.75 230.317 349.036 231.246C349.323 232.174 349.409 233.153 349.288 234.117L341.315 297.689C341.107 299.346 340.301 300.869 339.049 301.974C337.796 303.078 336.183 303.688 334.512 303.688Z" fill="url(#paint1_linear_311_525)"/>
<path d="M291.527 269.923C294.876 269.923 297.59 267.211 297.59 263.866C297.59 260.52 294.876 257.808 291.527 257.808C288.179 257.808 285.465 260.52 285.465 263.866C285.465 267.211 288.179 269.923 291.527 269.923Z" fill="white"/>
<path d="M92.7659 138.532L87.561 128.555C87.561 128.555 69.1565 118.036 67.0236 114.234C64.8902 110.43 64.052 99.5715 67.8279 96.7913C67.8279 96.7913 53.1441 85.7721 55.6439 83.5394C58.1353 81.145 86.9849 102.558 86.9849 102.558C86.9849 102.558 83.4725 86.7824 88.8102 86.0432C90.256 92.1574 92.7329 97.9812 96.1348 103.265C101.754 111.946 102.447 119.721 102.447 119.721L109.07 132.421L92.7659 138.532Z" fill="#FFCCB3"/>
<path d="M68.8184 97.0703L77.711 102.67" stroke="#FF967C" stroke-width="2.87188" stroke-linecap="round" stroke-linejoin="round"/>
<path d="M67.4922 103.476L75.0392 108.163" stroke="#FF967C" stroke-width="2.87188" stroke-linecap="round" stroke-linejoin="round"/>
<path d="M68.959 110.401L73.9928 113.58" stroke="#FF967C" stroke-width="2.87188" stroke-linecap="round" stroke-linejoin="round"/>
<path d="M103.604 21.74C105.945 21.74 107.843 19.8442 107.843 17.5055C107.843 15.1668 105.945 13.271 103.604 13.271C101.264 13.271 99.3662 15.1668 99.3662 17.5055C99.3662 19.8442 101.264 21.74 103.604 21.74Z" fill="white"/>
<path d="M120.722 21.74C123.062 21.74 124.96 19.8442 124.96 17.5055C124.96 15.1668 123.062 13.271 120.722 13.271C118.381 13.271 116.483 15.1668 116.483 17.5055C116.483 19.8442 118.381 21.74 120.722 21.74Z" fill="white"/>
<path d="M136.806 21.74C139.146 21.74 141.044 19.8442 141.044 17.5055C141.044 15.1668 139.146 13.271 136.806 13.271C134.465 13.271 132.567 15.1668 132.567 17.5055C132.567 19.8442 134.465 21.74 136.806 21.74Z" fill="white"/>
<path opacity="0.7" d="M9.49498 16.9864C26.5346 31.5057 71.4717 64.6109 128.544 66.1925C129.711 66.2273 130.818 66.7158 131.631 67.5538C132.443 68.3913 132.897 69.513 132.895 70.6797V161.03C132.896 162.183 132.453 163.291 131.658 164.126C130.863 164.961 129.777 165.459 128.624 165.516C111.465 166.369 46.3956 166.27 3.27987 120.15C2.51092 119.321 2.0855 118.232 2.08889 117.103V20.4081C2.0884 19.5507 2.33358 18.7108 2.79582 17.988C3.25807 17.2657 3.91752 16.6901 4.69665 16.3304C5.47529 15.9702 6.34164 15.8405 7.19199 15.9572C8.04235 16.0734 8.84135 16.4301 9.49498 16.9864Z" fill="#F7CC31"/>
<path d="M15.959 43.6113C15.959 43.6113 29.4053 56.6653 47.7846 64.7741" stroke="white" stroke-width="7.4328" stroke-miterlimit="10" stroke-linecap="round"/>
<path opacity="0.4" d="M15.959 59.437C15.959 59.437 34.6726 76.877 59.0161 83.3524" stroke="white" stroke-width="7.4328" stroke-miterlimit="10" stroke-linecap="round"/>
<path d="M13.1719 117.306V79.5679L26.4147 89.036V127.687L13.1719 117.306Z" fill="white"/>
<path d="M35.5234 132.556V105.667L48.7662 113.58V140.161L35.5234 132.556Z" fill="white"/>
<path d="M92.15 153.605V126.716L78.9072 124.905V151.486L92.15 153.605Z" fill="white"/>
<path d="M113.902 154.757V107.679H100.659V154.449L113.902 154.757Z" fill="white"/>
<path d="M57.2158 144.337V132.043L70.4586 135.764V149.129L57.2158 144.337Z" fill="white"/>
<g opacity="0.7">
<path opacity="0.7" d="M42.6621 204.203C59.7017 216.704 104.639 249.326 161.711 244.145C162.266 244.08 162.829 244.135 163.361 244.306C163.893 244.477 164.382 244.761 164.795 245.138C165.207 245.514 165.534 245.975 165.753 246.489C165.971 247.003 166.077 247.558 166.063 248.116V338.467C166.034 339.663 165.593 340.812 164.815 341.721C164.037 342.631 162.969 343.244 161.791 343.459C144.632 346.346 73.2642 344.92 36.4465 308.103C36.0656 307.721 35.7642 307.268 35.5598 306.769C35.3553 306.27 35.2521 305.736 35.256 305.197V208.502C35.256 204.673 39.7457 202.063 42.6621 204.203Z" fill="#CAE4DB"/>
</g>
<path d="M316.924 301.094C316.924 301.094 321.489 301.473 320.802 303.774C320.114 306.076 316.038 305.014 312.317 307.315C308.595 309.617 293.882 311.26 286.533 310.036C279.184 308.812 277.142 301.094 277.142 301.094C277.142 301.094 275.914 293.771 288.895 293.02C301.876 292.268 307.918 296.43 310.176 300.941L316.924 301.094Z" fill="#FFCCB3"/>
<path d="M282.661 294.157L285.465 301.691" stroke="#E56441" stroke-width="2.23881" stroke-linecap="round"/>
<path d="M289.923 292.931L292.726 300.465" stroke="#E56441" stroke-width="2.23881" stroke-linecap="round"/>
<path d="M297.591 293.569L300.394 301.103" stroke="#E56441" stroke-width="2.23881" stroke-linecap="round"/>
<path opacity="0.7" d="M455.074 211.554C431.307 231.807 368.625 277.985 289.016 280.191C287.388 280.24 285.843 280.921 284.709 282.091C283.576 283.259 282.943 284.823 282.945 286.45V412.48C282.944 414.088 283.563 415.634 284.672 416.8C285.781 417.964 287.296 418.659 288.903 418.738C312.839 419.928 403.602 419.79 463.747 355.457C464.818 354.301 465.414 352.782 465.409 351.206V216.327C465.409 215.131 465.065 213.96 464.42 212.951C463.776 211.943 462.855 211.141 461.77 210.639C460.685 210.137 459.473 209.956 458.291 210.118C457.104 210.281 455.99 210.779 455.074 211.554Z" fill="#CAE4DB"/>
<path d="M446.062 248.692C446.062 248.692 427.306 266.902 401.669 278.213" stroke="white" stroke-width="10.368" stroke-miterlimit="10" stroke-linecap="round"/>
<path opacity="0.4" d="M446.062 270.769C446.062 270.769 419.955 295.095 385.999 304.128" stroke="white" stroke-width="10.368" stroke-miterlimit="10" stroke-linecap="round"/>
<path d="M351.764 208.893L351.764 208.893C351.244 207.64 350.977 206.296 350.977 204.94V182.513C350.977 181.156 351.244 179.813 351.764 178.56C352.283 177.307 353.045 176.168 354.005 175.208C354.965 174.249 356.105 173.488 357.359 172.969C358.614 172.45 359.958 172.183 361.316 172.183H433.871C436.612 172.183 439.247 173.271 441.183 175.208L441.183 175.208C443.124 177.146 444.21 179.773 444.21 182.513V204.94C444.21 207.68 443.124 210.307 441.183 212.244L441.183 212.244C439.247 214.182 436.612 215.27 433.871 215.27H407.638H407.431L407.285 215.417L399.688 223.01C399.069 223.628 398.232 223.974 397.357 223.974C396.481 223.974 395.644 223.628 395.026 223.01L387.428 215.417L387.282 215.27H387.075H361.316C359.959 215.27 358.614 215.003 357.359 214.484C356.105 213.965 354.965 213.204 354.005 212.244C353.045 211.285 352.283 210.146 351.764 208.893Z" fill="white" stroke="#7A9D96"/>
<path d="M381.255 186.613C380.286 185.718 379.017 185.222 377.699 185.222C376.381 185.222 375.111 185.718 374.142 186.613L372.803 187.848L371.463 186.613C370.495 185.718 369.225 185.222 367.906 185.222C366.588 185.222 365.318 185.718 364.349 186.613C363.838 187.075 363.43 187.639 363.15 188.269C362.87 188.899 362.726 189.58 362.726 190.269C362.726 190.958 362.87 191.639 363.15 192.269C363.43 192.899 363.838 193.463 364.349 193.925L372.803 201.754L381.255 194.029C381.788 193.569 382.219 193 382.51 192.36C382.806 191.72 382.956 191.025 382.956 190.321C382.956 189.617 382.806 188.921 382.51 188.281C382.219 187.641 381.788 187.072 381.255 186.613Z" fill="#F7CC31"/>
<path d="M390.694 191.187C390.767 190.239 391.135 189.496 391.794 188.96C392.453 188.424 393.311 188.156 394.362 188.156C395.065 188.156 395.67 188.285 396.174 188.543C396.693 188.79 397.08 189.13 397.337 189.563C397.603 189.996 397.739 190.486 397.739 191.033C397.739 191.672 397.555 192.224 397.182 192.687C396.819 193.152 396.344 193.451 395.757 193.585V193.662C396.426 193.827 396.959 194.152 397.351 194.636C397.744 195.121 397.943 195.755 397.943 196.539C397.943 197.127 397.807 197.658 397.536 198.132C397.269 198.596 396.867 198.962 396.329 199.231C395.791 199.498 395.147 199.632 394.396 199.632C393.301 199.632 392.404 199.349 391.702 198.782C390.999 198.204 390.607 197.39 390.524 196.338H391.886C391.959 196.957 392.211 197.462 392.647 197.854C393.078 198.245 393.659 198.442 394.381 198.442C395.103 198.442 395.651 198.256 396.019 197.885C396.402 197.503 396.596 197.013 396.596 196.416C396.596 195.642 396.334 195.085 395.82 194.745C395.302 194.405 394.522 194.235 393.48 194.235H393.126V193.059H393.499C394.444 193.049 395.166 192.894 395.651 192.595C396.135 192.286 396.378 191.811 396.378 191.172C396.378 190.625 396.198 190.187 395.835 189.857C395.486 189.527 394.977 189.362 394.318 189.362C393.679 189.362 393.16 189.527 392.768 189.857C392.375 190.187 392.143 190.631 392.075 191.187H390.694ZM401.528 197.606L399.798 201.767H398.854L399.983 197.606H401.528ZM410.046 189.594H404.615V193.121C404.852 192.791 405.201 192.523 405.666 192.317C406.131 192.1 406.63 191.992 407.168 191.992C408.026 191.992 408.724 192.172 409.257 192.533C409.794 192.884 410.177 193.342 410.405 193.91C410.642 194.467 410.759 195.06 410.759 195.688C410.759 196.431 410.623 197.096 410.342 197.684C410.066 198.272 409.634 198.735 409.058 199.076C408.491 199.416 407.784 199.586 406.936 199.586C405.855 199.586 404.978 199.308 404.305 198.751C403.636 198.194 403.224 197.452 403.084 196.524H404.46C404.595 197.111 404.876 197.57 405.312 197.9C405.744 198.23 406.291 198.395 406.95 198.395C407.769 198.395 408.379 198.153 408.796 197.668C409.208 197.173 409.412 196.524 409.412 195.719C409.412 194.915 409.208 194.296 408.796 193.863C408.379 193.42 407.774 193.198 406.97 193.198C406.422 193.198 405.942 193.332 405.526 193.6C405.123 193.858 404.833 194.214 404.644 194.667H403.316V188.357H410.046V189.594ZM412.464 198.426C413.772 197.375 414.8 196.513 415.541 195.843C416.287 195.163 416.912 194.456 417.416 193.724C417.935 192.981 418.191 192.255 418.191 191.543C418.191 190.873 418.027 190.347 417.697 189.965C417.377 189.574 416.854 189.378 416.132 189.378C415.429 189.378 414.882 189.599 414.489 190.043C414.107 190.476 413.903 191.058 413.869 191.79H412.508C412.551 190.636 412.9 189.744 413.559 189.115C414.223 188.485 415.076 188.171 416.118 188.171C417.179 188.171 418.022 188.465 418.637 189.053C419.267 189.641 419.582 190.45 419.582 191.481C419.582 192.337 419.325 193.173 418.812 193.987C418.303 194.791 417.726 195.503 417.077 196.122C416.428 196.73 415.594 197.441 414.582 198.256H419.907V199.432H412.464V198.426ZM428.425 189.471L424.122 199.555H422.697L427.063 189.61H421.089V188.403H428.425V189.471Z" fill="#00303F"/>
<path opacity="0.7" d="M8.17263 378.107H62.875C63.9482 378.107 65.0108 377.896 66.0027 377.485C66.994 377.075 67.8953 376.474 68.654 375.715C69.4128 374.957 70.0146 374.057 70.4255 373.066C70.8364 372.076 71.0476 371.014 71.0476 369.942V353.033C71.0476 351.961 70.8364 350.899 70.4255 349.908C70.0146 348.918 69.4128 348.017 68.654 347.259C67.8953 346.501 66.994 345.9 66.0027 345.489C65.0108 345.079 63.9482 344.868 62.875 344.868H43.4564L37.7258 339.142C37.1894 338.606 36.4616 338.305 35.7028 338.305C34.9446 338.305 34.2168 338.606 33.6804 339.142L27.9498 344.868H8.17263C6.00483 344.868 3.92618 345.728 2.3936 347.259C0.861017 348.79 0 350.867 0 353.033V369.942C0 372.107 0.861017 374.184 2.3936 375.715C3.92618 377.247 6.00483 378.107 8.17263 378.107Z" fill="#7A9D96"/>
<path d="M33.9424 365.643C34.9308 364.851 35.7046 364.201 36.2652 363.696C36.8254 363.183 37.2963 362.65 37.6776 362.098C38.0667 361.538 38.261 360.99 38.261 360.454C38.261 359.949 38.1365 359.552 37.8875 359.264C37.6462 358.969 37.2532 358.821 36.7086 358.821C36.1795 358.821 35.7671 358.989 35.4716 359.323C35.1838 359.649 35.0277 360.088 35.0045 360.64H33.9773C34.0088 359.77 34.2733 359.097 34.7709 358.623C35.269 358.149 35.911 357.912 36.697 357.912C37.4984 357.912 38.1326 358.133 38.5997 358.577C39.0741 359.02 39.3115 359.63 39.3115 360.407C39.3115 361.053 39.1172 361.682 38.7281 362.296C38.3468 362.903 37.9107 363.439 37.4208 363.906C36.9305 364.365 36.304 364.901 35.5413 365.515H39.5567V366.401H33.9424V365.643ZM40.5277 364.617V363.813L44.6244 358.145H45.8968V363.696H47.064V364.617H45.8968V366.495H44.8463V364.617H40.5277ZM44.8928 359.253L41.7531 363.696H44.8928V359.253ZM48.1019 360.186C48.1562 359.47 48.4324 358.911 48.9305 358.506C49.4286 358.102 50.0744 357.9 50.8681 357.9C51.3972 357.9 51.8522 357.997 52.2335 358.192C52.6226 358.378 52.9143 358.635 53.1091 358.961C53.3111 359.288 53.4124 359.657 53.4124 360.069C53.4124 360.551 53.2724 360.967 52.9923 361.317C52.72 361.667 52.3619 361.892 51.9186 361.993V362.051C52.4244 362.176 52.8251 362.421 53.1207 362.786C53.4163 363.152 53.5641 363.63 53.5641 364.221C53.5641 364.664 53.4628 365.064 53.2607 365.422C53.0582 365.772 52.7549 366.048 52.3503 366.25C51.9457 366.452 51.4592 366.553 50.8914 366.553C50.0667 366.553 49.3893 366.339 48.8602 365.912C48.3311 365.476 48.0355 364.862 47.9735 364.069H49.0002C49.055 364.535 49.2454 364.916 49.5725 365.212C49.899 365.507 50.3351 365.655 50.8797 365.655C51.4244 365.655 51.8367 365.515 52.1168 365.235C52.4046 364.947 52.549 364.578 52.549 364.127C52.549 363.544 52.3542 363.124 51.9651 362.868C51.576 362.611 50.9888 362.483 50.2028 362.483H49.9344V361.597H50.2145C50.9301 361.589 51.4709 361.472 51.8367 361.247C52.2025 361.014 52.3852 360.656 52.3852 360.174C52.3852 359.762 52.249 359.431 51.9767 359.183C51.7122 358.934 51.3308 358.809 50.8327 358.809C50.3506 358.809 49.9616 358.934 49.6655 359.183C49.3699 359.431 49.195 359.766 49.1403 360.186H48.1019ZM59.7021 360.069C59.5311 359.206 58.9981 358.775 58.1032 358.775C57.4103 358.775 56.8928 359.043 56.5507 359.579C56.2082 360.108 56.041 360.983 56.0487 362.203C56.2275 361.799 56.5236 361.484 56.9359 361.258C57.356 361.025 57.8231 360.908 58.3362 360.908C59.1381 360.908 59.7758 361.157 60.2506 361.655C60.7332 362.153 60.9745 362.841 60.9745 363.719C60.9745 364.248 60.8694 364.722 60.6591 365.142C60.457 365.562 60.1455 365.896 59.7254 366.145C59.313 366.393 58.8111 366.518 58.2199 366.518C57.418 366.518 56.792 366.339 56.3404 365.981C55.8893 365.624 55.5739 365.13 55.3951 364.501C55.2163 363.871 55.1267 363.093 55.1267 362.168C55.1267 359.315 56.1229 357.888 58.1148 357.888C58.8775 357.888 59.4763 358.094 59.9124 358.506C60.348 358.918 60.6048 359.439 60.6823 360.069H59.7021ZM58.1148 361.807C57.78 361.807 57.465 361.877 57.1695 362.017C56.8734 362.149 56.6321 362.355 56.4456 362.635C56.2668 362.907 56.1771 363.241 56.1771 363.637C56.1771 364.228 56.3482 364.71 56.6908 365.083C57.0333 365.449 57.5232 365.632 58.1613 365.632C58.7059 365.632 59.1381 365.464 59.4569 365.13C59.784 364.788 59.9473 364.33 59.9473 363.754C59.9473 363.148 59.7918 362.674 59.4802 362.331C59.1691 361.982 58.7137 361.807 58.1148 361.807Z" fill="white"/>
<path d="M299.336 364.037C299.336 364.037 316.781 360.388 324.757 351.934C335.326 340.732 337.763 327.298 349.342 325.917C367.514 323.749 378.048 387.848 400.109 379.175C422.169 370.503 416.956 322.636 430.082 314.523C439.123 308.934 443.823 325.556 456.484 321.22" stroke="white" stroke-width="10.368" stroke-miterlimit="10" stroke-linecap="round"/>
<path opacity="0.7" d="M127.654 311.441C140.694 315.161 171.203 321.808 211.179 317.223C211.821 317.132 212.476 317.181 213.097 317.368C213.718 317.554 214.292 317.874 214.777 318.304C215.262 318.735 215.647 319.265 215.907 319.86C216.166 320.454 216.293 321.097 216.278 321.745V383.388C216.249 384.749 215.74 386.055 214.842 387.077C213.943 388.099 212.713 388.771 211.366 388.976C197.133 390.92 154.87 395.079 123.375 381.493C122.569 381.137 121.887 380.551 121.415 379.807C120.942 379.064 120.702 378.198 120.722 377.317V316.893C120.722 313.319 124.323 310.49 127.654 311.441Z" fill="url(#paint2_linear_311_525)"/>
<path d="M10.6856 368.201H12.4774C12.8103 368.2 13.1291 368.068 13.3641 367.833C13.5996 367.599 13.7319 367.28 13.7324 366.947V358.71C13.7319 358.378 13.5996 358.06 13.3641 357.824C13.1291 357.59 12.8103 357.458 12.4774 357.457H10.6856C10.3527 357.458 10.0339 357.59 9.79892 357.824C9.56343 358.06 9.43115 358.378 9.43066 358.71V366.947C9.43115 367.28 9.56343 367.599 9.79892 367.833C10.0339 368.068 10.3527 368.2 10.6856 368.201Z" fill="white"/>
<path d="M18.5933 352.264C17.8767 352.264 17.5181 352.622 17.5181 354.413C17.5181 356.115 15.8687 357.484 14.8076 358.19V367.062C15.9555 367.593 18.2527 368.38 21.8193 368.38H22.9662C23.6426 368.38 24.2967 368.142 24.8137 367.707C25.3307 367.271 25.6772 366.667 25.791 366.002L26.5939 361.346C26.6652 360.935 26.6458 360.513 26.5363 360.11C26.4272 359.707 26.2315 359.333 25.9626 359.013C25.6932 358.694 25.3574 358.437 24.979 358.261C24.6001 358.085 24.1872 357.994 23.7696 357.994H20.3856C20.7664 357.088 20.9501 356.111 20.9234 355.129C20.9234 352.98 19.3104 352.264 18.5933 352.264V352.264Z" fill="white"/>
<path d="M70.3938 295.618C60.8853 292.268 53.1773 281.851 53.1773 272.351C53.1773 262.851 60.8853 257.865 70.3938 261.215V250.173C55.0326 244.761 42.5801 252.816 42.5801 268.164C42.5801 283.512 55.0326 300.34 70.3938 305.752C85.1061 310.935 97.1424 303.761 98.1338 289.662L87.5433 285.931C86.7947 294.477 79.4051 298.793 70.3938 295.618Z" fill="white"/>
<path d="M73.9248 247.89V258.931C83.4333 262.281 91.1413 272.698 91.1413 282.198C91.1413 282.695 91.1156 283.176 91.0744 283.647L101.664 287.378C101.708 286.756 101.739 286.126 101.739 285.477C101.739 270.13 89.2855 253.301 73.9248 247.89Z" fill="#7A9D96"/>
<path d="M70.3936 295.618V305.752" stroke="white" stroke-width="2.42819" stroke-miterlimit="10"/>
<path d="M53.1773 272.352L42.5801 268.618" stroke="white" stroke-width="2.42819" stroke-miterlimit="10"/>
<path d="M114.998 273.929L134.662 277.663" stroke="white" stroke-width="10.368" stroke-miterlimit="10" stroke-linecap="round"/>
<path opacity="0.4" d="M114.998 304.713L134.662 308.447" stroke="white" stroke-width="10.368" stroke-miterlimit="10" stroke-linecap="round"/>
<path d="M114.998 289.635L143.249 294.998" stroke="white" stroke-width="10.368" stroke-miterlimit="10" stroke-linecap="round"/>
<g opacity="0.7">
<path opacity="0.7" d="M469.644 9.84106C452.603 22.3415 421.433 53.8636 353.403 64.3368C348.194 65.1385 346.244 68.8409 346.244 72.9321V159.113C346.273 160.309 346.714 161.458 347.492 162.367C348.269 163.276 349.337 163.89 350.515 164.104C367.675 166.991 433.76 150.148 473.278 116.239C477.053 113 477.053 107.567 477.053 106.438V14.1407C477.053 10.3114 472.561 7.70164 469.644 9.84106Z" fill="url(#paint3_linear_311_525)"/>
</g>
<path d="M355.238 79.6943V132.999C355.238 133.463 355.342 133.921 355.543 134.339C355.743 134.758 356.036 135.126 356.398 135.416C356.76 135.706 357.183 135.911 357.635 136.016C358.088 136.121 358.558 136.123 359.011 136.022C368.729 133.847 395.016 127.56 411.616 119.735C412.149 119.485 412.594 119.088 412.909 118.592C413.219 118.097 413.389 117.522 413.384 116.936V65.0259C413.389 64.5069 413.258 63.9962 413.006 63.5401C412.759 63.0846 412.401 62.6993 411.96 62.419C411.524 62.1387 411.024 61.9726 410.506 61.9363C409.988 61.9 409.469 61.9944 408.994 62.2113C399.745 66.468 377.514 75.7667 358.179 76.6033C357.385 76.641 356.636 76.9838 356.088 77.5594C355.54 78.135 355.236 78.8999 355.238 79.6943Z" fill="white"/>
<path d="M357.642 124.418V130.025C357.642 130.449 357.739 130.868 357.928 131.249C358.116 131.629 358.39 131.961 358.727 132.219C359.065 132.476 359.458 132.653 359.875 132.733C360.292 132.815 360.722 132.799 361.132 132.687L390.21 124.744C390.67 124.619 391.087 124.378 391.426 124.044C391.765 123.71 392.007 123.295 392.138 122.838C392.269 122.382 392.279 121.9 392.167 121.438C392.056 120.976 391.828 120.551 391.508 120.204L375.916 103.445C375.635 103.145 375.296 102.91 374.913 102.759C374.53 102.607 374.118 102.543 373.708 102.571C373.298 102.598 372.9 102.717 372.542 102.918C372.183 103.119 371.874 103.398 371.637 103.733L358.147 122.827C357.818 123.292 357.642 123.848 357.642 124.418Z" fill="#7A9D96"/>
<path opacity="0.6" d="M387.288 111.269L396.014 120.52C396.295 120.818 396.659 121.025 397.056 121.114C397.453 121.204 397.87 121.173 398.253 121.024C400.831 120.018 406.621 117.744 409.552 116.484C409.92 116.326 410.23 116.063 410.453 115.729C410.671 115.394 410.788 115.003 410.788 114.602V105.934C410.788 105.491 410.642 105.061 410.381 104.707L398.112 88.2871C397.889 87.9923 397.594 87.7618 397.255 87.6205C396.916 87.4791 396.542 87.4317 396.179 87.483C395.816 87.5348 395.472 87.6829 395.181 87.9129C394.895 88.1428 394.677 88.4454 394.546 88.7896L386.861 109.138C386.726 109.498 386.692 109.888 386.769 110.265C386.842 110.641 387.026 110.989 387.288 111.269Z" fill="#7A9D96"/>
<path d="M379.627 96.8236C382.214 96.8236 384.312 94.7284 384.312 92.1432C384.312 89.5581 382.214 87.4629 379.627 87.4629C377.039 87.4629 374.941 89.5581 374.941 92.1432C374.941 94.7284 377.039 96.8236 379.627 96.8236Z" fill="#F7CC31"/>
<path d="M426.894 60.4717C438.915 54.3807 450.485 47.4362 461.513 39.6924" stroke="white" stroke-width="10.368" stroke-miterlimit="10" stroke-linecap="round"/>
<path d="M426.894 80.6907C426.894 80.6907 434.772 76.8541 445.582 70.3013" stroke="white" stroke-width="10.368" stroke-miterlimit="10" stroke-linecap="round"/>
<path d="M426.894 100.458C438.915 94.3665 450.485 87.4225 461.513 79.6787" stroke="white" stroke-width="10.368" stroke-miterlimit="10" stroke-linecap="round"/>
<path d="M426.894 122.651C438.915 116.56 450.485 109.616 461.513 101.872" stroke="white" stroke-width="10.368" stroke-miterlimit="10" stroke-linecap="round"/>
<path d="M361.92 151.395C364.283 151.395 366.199 149.481 366.199 147.12C366.199 144.759 364.283 142.845 361.92 142.845C359.557 142.845 357.642 144.759 357.642 147.12C357.642 149.481 359.557 151.395 361.92 151.395Z" fill="white"/>
<path d="M386.731 144.478C389.09 144.478 391.009 142.564 391.009 140.203C391.009 137.842 389.09 135.929 386.731 135.929C384.366 135.929 382.452 137.842 382.452 140.203C382.452 142.564 384.366 144.478 386.731 144.478Z" fill="white"/>
<path d="M409.106 136.841C411.47 136.841 413.384 134.927 413.384 132.566C413.384 130.205 411.47 128.292 409.106 128.292C406.746 128.292 404.827 130.205 404.827 132.566C404.827 134.927 406.746 136.841 409.106 136.841Z" fill="white"/>
<defs>
<linearGradient id="paint0_linear_311_525" x1="199.628" y1="-257.061" x2="376.52" y2="710.473" gradientUnits="userSpaceOnUse">
<stop offset="0.135712" stop-color="white"/>
<stop offset="1" stop-color="#7A9D96"/>
</linearGradient>
<linearGradient id="paint1_linear_311_525" x1="288.435" y1="226.231" x2="300.342" y2="391.133" gradientUnits="userSpaceOnUse">
<stop stop-color="#DDDDDD"/>
<stop offset="0.6912" stop-color="#A6A6A6"/>
</linearGradient>
<linearGradient id="paint2_linear_311_525" x1="166.121" y1="311.065" x2="181.522" y2="481.011" gradientUnits="userSpaceOnUse">
<stop stop-color="#F7CC31" stop-opacity="0.43"/>
<stop offset="1" stop-color="#F7CC31"/>
</linearGradient>
<linearGradient id="paint3_linear_311_525" x1="395.874" y1="-184.577" x2="493.763" y2="326.468" gradientUnits="userSpaceOnUse">
<stop stop-color="white"/>
<stop offset="1" stop-color="#7A9D96"/>
</linearGradient>
</defs>
</svg>
